{
	"asset":{
		"generator":"Khronos glTF Blender I/O v4.3.47",
		"version":"2.0"
	},
	"scene":0,
	"scenes":[
		{
			"name":"Scene",
			"nodes":[
				0
			]
		}
	],
	"nodes":[
		{
			"mesh":0,
			"name":"node0.054"
		}
	],
	"materials":[
		{
			"doubleSided":true,
			"name":"mat_0.001",
			"pbrMetallicRoughness":{
				"baseColorFactor":[
					0.12213877588510513,
					0.12213877588510513,
					0.12213877588510513,
					1
				],
				"metallicFactor":0.5,
				"roughnessFactor":0.5
			}
		},
		{
			"doubleSided":true,
			"name":"mat_1.001",
			"pbrMetallicRoughness":{
				"baseColorFactor":[
					0.44520121812820435,
					0.44520121812820435,
					0.44520121812820435,
					1
				],
				"metallicFactor":0.5,
				"roughnessFactor":0.5
			}
		},
		{
			"doubleSided":true,
			"name":"gripper_vgc10",
			"pbrMetallicRoughness":{
				"baseColorFactor":[
					0.6784313917160034,
					0.7098039984703064,
					0.7411764860153198,
					1
				],
				"metallicFactor":0,
				"roughnessFactor":0.5
			}
		},
		{
			"doubleSided":true,
			"name":"mat_2.001",
			"pbrMetallicRoughness":{
				"baseColorFactor":[
					0.5906188488006592,
					0.6375969052314758,
					0.8549926280975342,
					1
				],
				"metallicFactor":0.5,
				"roughnessFactor":0.5
			}
		}
	],
	"meshes":[
		{
			"name":"gripper_vgc10.054",
			"primitives":[
				{
					"attributes":{
						"POSITION":0,
						"NORMAL":1
					},
					"indices":2,
					"material":0
				},
				{
					"attributes":{
						"POSITION":3,
						"NORMAL":4
					},
					"indices":5,
					"material":1
				},
				{
					"attributes":{
						"POSITION":6,
						"NORMAL":7
					},
					"indices":8,
					"material":2
				},
				{
					"attributes":{
						"POSITION":9,
						"NORMAL":10
					},
					"indices":11,
					"material":3
				}
			]
		}
	],
	"accessors":[
		{
			"bufferView":0,
			"componentType":5126,
			"count":1084,
			"max":[
				0.05001699924468994,
				0.05001699924468994,
				0.021800000220537186
			],
			"min":[
				-0.05001699924468994,
				-0.05001699924468994,
				0.0012880000285804272
			],
			"type":"VEC3"
		},
		{
			"bufferView":1,
			"componentType":5126,
			"count":1084,
			"type":"VEC3"
		},
		{
			"bufferView":2,
			"componentType":5123,
			"count":6504,
			"type":"SCALAR"
		},
		{
			"bufferView":3,
			"componentType":5126,
			"count":328373,
			"max":[
				0.04999999701976776,
				0.04999999701976776,
				0.1428999900817871
			],
			"min":[
				-0.04999999701976776,
				-0.04999999701976776,
				-0.01119999960064888
			],
			"type":"VEC3"
		},
		{
			"bufferView":4,
			"componentType":5126,
			"count":328373,
			"type":"VEC3"
		},
		{
			"bufferView":5,
			"componentType":5125,
			"count":1970082,
			"type":"SCALAR"
		},
		{
			"bufferView":6,
			"componentType":5126,
			"count":10946,
			"max":[
				0.019997000694274902,
				0.019997000694274902,
				0.16259899735450745
			],
			"min":[
				-0.019997000694274902,
				-0.019997000694274902,
				0.13660000264644623
			],
			"type":"VEC3"
		},
		{
			"bufferView":7,
			"componentType":5126,
			"count":10946,
			"type":"VEC3"
		},
		{
			"bufferView":8,
			"componentType":5123,
			"count":65394,
			"type":"SCALAR"
		},
		{
			"bufferView":9,
			"componentType":5126,
			"count":1188,
			"max":[
				0.035499997437000275,
				0.03540100157260895,
				0.0020000000949949026
			],
			"min":[
				-0.035499997437000275,
				-0.03540100157260895,
				-0.0020000000949949026
			],
			"type":"VEC3"
		},
		{
			"bufferView":10,
			"componentType":5126,
			"count":1188,
			"type":"VEC3"
		},
		{
			"bufferView":11,
			"componentType":5123,
			"count":7224,
			"type":"SCALAR"
		}
	],
	"bufferViews":[
		{
			"buffer":0,
			"byteLength":13008,
			"byteOffset":0,
			"target":34962
		},
		{
			"buffer":0,
			"byteLength":13008,
			"byteOffset":13008,
			"target":34962
		},
		{
			"buffer":0,
			"byteLength":13008,
			"byteOffset":26016,
			"target":34963
		},
		{
			"buffer":0,
			"byteLength":3940476,
			"byteOffset":39024,
			"target":34962
		},
		{
			"buffer":0,
			"byteLength":3940476,
			"byteOffset":3979500,
			"target":34962
		},
		{
			"buffer":0,
			"byteLength":7880328,
			"byteOffset":7919976,
			"target":34963
		},
		{
			"buffer":0,
			"byteLength":131352,
			"byteOffset":15800304,
			"target":34962
		},
		{
			"buffer":0,
			"byteLength":131352,
			"byteOffset":15931656,
			"target":34962
		},
		{
			"buffer":0,
			"byteLength":130788,
			"byteOffset":16063008,
			"target":34963
		},
		{
			"buffer":0,
			"byteLength":14256,
			"byteOffset":16193796,
			"target":34962
		},
		{
			"buffer":0,
			"byteLength":14256,
			"byteOffset":16208052,
			"target":34962
		},
		{
			"buffer":0,
			"byteLength":14448,
			"byteOffset":16222308,
			"target":34963
		}
	],
	"buffers":[
		{
			"byteLength":16236756,
			"uri":"gripper_vgc10_1.bin"
		}
	]
}
