{
	"asset":{
		"generator":"Khronos glTF Blender I/O v4.3.47",
		"version":"2.0"
	},
	"scene":0,
	"scenes":[
		{
			"name":"Scene",
			"nodes":[
				0
			]
		}
	],
	"nodes":[
		{
			"mesh":0,
			"name":"node0.002"
		}
	],
	"materials":[
		{
			"doubleSided":true,
			"name":"gripper_vgc10.002",
			"pbrMetallicRoughness":{
				"baseColorFactor":[
					0.6784313917160034,
					0.7098039984703064,
					0.7411764860153198,
					1
				],
				"metallicFactor":0,
				"roughnessFactor":0.5
			}
		},
		{
			"doubleSided":true,
			"name":"mat_0.001",
			"pbrMetallicRoughness":{
				"baseColorFactor":[
					0.12213877588510513,
					0.12213877588510513,
					0.12213877588510513,
					1
				],
				"metallicFactor":0.5,
				"roughnessFactor":0.5
			}
		},
		{
			"doubleSided":true,
			"name":"mat_2.001",
			"pbrMetallicRoughness":{
				"baseColorFactor":[
					0.5906188488006592,
					0.6375969052314758,
					0.8549926280975342,
					1
				],
				"metallicFactor":0.5,
				"roughnessFactor":0.5
			}
		},
		{
			"doubleSided":true,
			"name":"mat_1.001",
			"pbrMetallicRoughness":{
				"baseColorFactor":[
					0.44520121812820435,
					0.44520121812820435,
					0.44520121812820435,
					1
				],
				"metallicFactor":0.5,
				"roughnessFactor":0.5
			}
		},
		{
			"doubleSided":true,
			"name":"gripper_vgc10",
			"pbrMetallicRoughness":{
				"baseColorFactor":[
					0.6784313917160034,
					0.7098039984703064,
					0.7411764860153198,
					1
				],
				"metallicFactor":0,
				"roughnessFactor":0.5
			}
		},
		{
			"doubleSided":true,
			"name":"gripper_vgc10.001",
			"pbrMetallicRoughness":{
				"baseColorFactor":[
					0.6784313917160034,
					0.7098039984703064,
					0.7411764860153198,
					1
				],
				"metallicFactor":0,
				"roughnessFactor":0.5
			}
		},
		{
			"doubleSided":true,
			"name":"gripper_vgc10.003",
			"pbrMetallicRoughness":{
				"baseColorFactor":[
					0.6784313917160034,
					0.7098039984703064,
					0.7411764860153198,
					1
				],
				"metallicFactor":0,
				"roughnessFactor":0.5
			}
		}
	],
	"meshes":[
		{
			"name":"gripper_vgc10.103",
			"primitives":[
				{
					"attributes":{
						"POSITION":0,
						"NORMAL":1
					},
					"indices":2,
					"material":0
				},
				{
					"attributes":{
						"POSITION":3,
						"NORMAL":4
					},
					"indices":5,
					"material":1
				},
				{
					"attributes":{
						"POSITION":6,
						"NORMAL":7
					},
					"indices":8,
					"material":2
				},
				{
					"attributes":{
						"POSITION":9,
						"NORMAL":10
					},
					"indices":11,
					"material":3
				},
				{
					"attributes":{
						"POSITION":12,
						"NORMAL":13
					},
					"indices":2,
					"material":4
				},
				{
					"attributes":{
						"POSITION":14,
						"NORMAL":15
					},
					"indices":2,
					"material":5
				},
				{
					"attributes":{
						"POSITION":16,
						"NORMAL":17
					},
					"indices":2,
					"material":6
				}
			]
		}
	],
	"accessors":[
		{
			"bufferView":0,
			"componentType":5126,
			"count":10474,
			"max":[
				-0.002678999677300453,
				-0.002678999677300453,
				0.10089899599552155
			],
			"min":[
				-0.032677002251148224,
				-0.032677002251148224,
				0.07739999890327454
			],
			"type":"VEC3"
		},
		{
			"bufferView":1,
			"componentType":5126,
			"count":10474,
			"type":"VEC3"
		},
		{
			"bufferView":2,
			"componentType":5123,
			"count":62604,
			"type":"SCALAR"
		},
		{
			"bufferView":3,
			"componentType":5126,
			"count":1084,
			"max":[
				0.05001699924468994,
				0.05001699924468994,
				0.021799996495246887
			],
			"min":[
				-0.05001699924468994,
				-0.05001699924468994,
				0.001287996768951416
			],
			"type":"VEC3"
		},
		{
			"bufferView":4,
			"componentType":5126,
			"count":1084,
			"type":"VEC3"
		},
		{
			"bufferView":5,
			"componentType":5123,
			"count":6504,
			"type":"SCALAR"
		},
		{
			"bufferView":6,
			"componentType":5126,
			"count":1188,
			"max":[
				0.035499997437000275,
				0.03540100157260895,
				0.001999996602535248
			],
			"min":[
				-0.035499997437000275,
				-0.03540100157260895,
				-0.001999996602535248
			],
			"type":"VEC3"
		},
		{
			"bufferView":7,
			"componentType":5126,
			"count":1188,
			"type":"VEC3"
		},
		{
			"bufferView":8,
			"componentType":5123,
			"count":7224,
			"type":"SCALAR"
		},
		{
			"bufferView":9,
			"componentType":5126,
			"count":314826,
			"max":[
				0.04999999701976776,
				0.04999999701976776,
				0.0787000060081482
			],
			"min":[
				-0.04999999701976776,
				-0.04999999701976776,
				-0.011199995875358582
			],
			"type":"VEC3"
		},
		{
			"bufferView":10,
			"componentType":5126,
			"count":314826,
			"type":"VEC3"
		},
		{
			"bufferView":11,
			"componentType":5125,
			"count":1888800,
			"type":"SCALAR"
		},
		{
			"bufferView":12,
			"componentType":5126,
			"count":10474,
			"max":[
				-0.002678999677300453,
				0.032677002251148224,
				0.10089899599552155
			],
			"min":[
				-0.032677002251148224,
				0.002678999677300453,
				0.07739999890327454
			],
			"type":"VEC3"
		},
		{
			"bufferView":13,
			"componentType":5126,
			"count":10474,
			"type":"VEC3"
		},
		{
			"bufferView":14,
			"componentType":5126,
			"count":10474,
			"max":[
				0.032677002251148224,
				-0.002678999677300453,
				0.10089899599552155
			],
			"min":[
				0.002678999677300453,
				-0.032677002251148224,
				0.07739999890327454
			],
			"type":"VEC3"
		},
		{
			"bufferView":15,
			"componentType":5126,
			"count":10474,
			"type":"VEC3"
		},
		{
			"bufferView":16,
			"componentType":5126,
			"count":10474,
			"max":[
				0.032677002251148224,
				0.032677002251148224,
				0.10089899599552155
			],
			"min":[
				0.002678999677300453,
				0.002678999677300453,
				0.07739999890327454
			],
			"type":"VEC3"
		},
		{
			"bufferView":17,
			"componentType":5126,
			"count":10474,
			"type":"VEC3"
		}
	],
	"bufferViews":[
		{
			"buffer":0,
			"byteLength":125688,
			"byteOffset":0,
			"target":34962
		},
		{
			"buffer":0,
			"byteLength":125688,
			"byteOffset":125688,
			"target":34962
		},
		{
			"buffer":0,
			"byteLength":125208,
			"byteOffset":251376,
			"target":34963
		},
		{
			"buffer":0,
			"byteLength":13008,
			"byteOffset":376584,
			"target":34962
		},
		{
			"buffer":0,
			"byteLength":13008,
			"byteOffset":389592,
			"target":34962
		},
		{
			"buffer":0,
			"byteLength":13008,
			"byteOffset":402600,
			"target":34963
		},
		{
			"buffer":0,
			"byteLength":14256,
			"byteOffset":415608,
			"target":34962
		},
		{
			"buffer":0,
			"byteLength":14256,
			"byteOffset":429864,
			"target":34962
		},
		{
			"buffer":0,
			"byteLength":14448,
			"byteOffset":444120,
			"target":34963
		},
		{
			"buffer":0,
			"byteLength":3777912,
			"byteOffset":458568,
			"target":34962
		},
		{
			"buffer":0,
			"byteLength":3777912,
			"byteOffset":4236480,
			"target":34962
		},
		{
			"buffer":0,
			"byteLength":7555200,
			"byteOffset":8014392,
			"target":34963
		},
		{
			"buffer":0,
			"byteLength":125688,
			"byteOffset":15569592,
			"target":34962
		},
		{
			"buffer":0,
			"byteLength":125688,
			"byteOffset":15695280,
			"target":34962
		},
		{
			"buffer":0,
			"byteLength":125688,
			"byteOffset":15820968,
			"target":34962
		},
		{
			"buffer":0,
			"byteLength":125688,
			"byteOffset":15946656,
			"target":34962
		},
		{
			"buffer":0,
			"byteLength":125688,
			"byteOffset":16072344,
			"target":34962
		},
		{
			"buffer":0,
			"byteLength":125688,
			"byteOffset":16198032,
			"target":34962
		}
	],
	"buffers":[
		{
			"byteLength":16323720,
			"uri":"gripper_vgc10_4.bin"
		}
	]
}
