{
	"asset":{
		"generator":"Khronos glTF Blender I/O v4.1.63",
		"version":"2.0"
	},
	"scene":0,
	"scenes":[
		{
			"name":"Scene",
			"nodes":[
				0
			]
		}
	],
	"nodes":[
		{
			"mesh":0,
			"name":"Group2^2-Finger_85_Adaptive_Gripper.001"
		}
	],
	"materials":[
		{
			"doubleSided":true,
			"name":"0.078431_0.349020_0.917647_0.000000_0.001",
			"pbrMetallicRoughness":{
				"baseColorFactor":[
					0.0784313753247261,
					0.3490196168422699,
					0.9176470637321472,
					1
				],
				"metallicFactor":0.5,
				"roughnessFactor":0.5
			}
		},
		{
			"doubleSided":true,
			"name":"0.792157_0.819608_0.933333_0.000000_0.001",
			"pbrMetallicRoughness":{
				"baseColorFactor":[
					0.7921568751335144,
					0.8196078538894653,
					0.9333333373069763,
					1
				],
				"metallicFactor":0.5,
				"roughnessFactor":0.5
			}
		},
		{
			"doubleSided":true,
			"name":"1.000000_0.756863_0.054902_0.000000_0.002",
			"pbrMetallicRoughness":{
				"baseColorFactor":[
					1,
					0.7568627595901489,
					0.054901961237192154,
					1
				],
				"metallicFactor":0.5,
				"roughnessFactor":0.5
			}
		}
	],
	"meshes":[
		{
			"name":"mesh73_mesh.001",
			"primitives":[
				{
					"attributes":{
						"POSITION":0,
						"NORMAL":1,
						"TEXCOORD_0":2
					},
					"indices":3,
					"material":0
				},
				{
					"attributes":{
						"POSITION":4,
						"NORMAL":5,
						"TEXCOORD_0":6
					},
					"indices":7,
					"material":1
				},
				{
					"attributes":{
						"POSITION":8,
						"NORMAL":9,
						"TEXCOORD_0":10
					},
					"indices":11,
					"material":2
				}
			]
		}
	],
	"accessors":[
		{
			"bufferView":0,
			"componentType":5126,
			"count":30276,
			"max":[
				0.14308714866638184,
				0.01847478561103344,
				0.07321837544441223
			],
			"min":[
				0.045334815979003906,
				-0.020525217056274414,
				0.006581907160580158
			],
			"type":"VEC3"
		},
		{
			"bufferView":1,
			"componentType":5126,
			"count":30276,
			"type":"VEC3"
		},
		{
			"bufferView":2,
			"componentType":5126,
			"count":30276,
			"type":"VEC2"
		},
		{
			"bufferView":3,
			"componentType":5123,
			"count":69726,
			"type":"SCALAR"
		},
		{
			"bufferView":4,
			"componentType":5126,
			"count":8325,
			"max":[
				0.10457082092761993,
				0.013488112017512321,
				0.07321695983409882
			],
			"min":[
				0.04533623531460762,
				-0.013511891476809978,
				0.056045420467853546
			],
			"type":"VEC3"
		},
		{
			"bufferView":5,
			"componentType":5126,
			"count":8325,
			"type":"VEC3"
		},
		{
			"bufferView":6,
			"componentType":5126,
			"count":8325,
			"type":"VEC2"
		},
		{
			"bufferView":7,
			"componentType":5123,
			"count":22620,
			"type":"SCALAR"
		},
		{
			"bufferView":8,
			"componentType":5126,
			"count":6728,
			"max":[
				0.15018689632415771,
				0.012180110439658165,
				0.04831662401556969
			],
			"min":[
				0.11208660900592804,
				-0.01321989856660366,
				0.04196499288082123
			],
			"type":"VEC3"
		},
		{
			"bufferView":9,
			"componentType":5126,
			"count":6728,
			"type":"VEC3"
		},
		{
			"bufferView":10,
			"componentType":5126,
			"count":6728,
			"type":"VEC2"
		},
		{
			"bufferView":11,
			"componentType":5123,
			"count":22896,
			"type":"SCALAR"
		}
	],
	"bufferViews":[
		{
			"buffer":0,
			"byteLength":363312,
			"byteOffset":0,
			"target":34962
		},
		{
			"buffer":0,
			"byteLength":363312,
			"byteOffset":363312,
			"target":34962
		},
		{
			"buffer":0,
			"byteLength":242208,
			"byteOffset":726624,
			"target":34962
		},
		{
			"buffer":0,
			"byteLength":139452,
			"byteOffset":968832,
			"target":34963
		},
		{
			"buffer":0,
			"byteLength":99900,
			"byteOffset":1108284,
			"target":34962
		},
		{
			"buffer":0,
			"byteLength":99900,
			"byteOffset":1208184,
			"target":34962
		},
		{
			"buffer":0,
			"byteLength":66600,
			"byteOffset":1308084,
			"target":34962
		},
		{
			"buffer":0,
			"byteLength":45240,
			"byteOffset":1374684,
			"target":34963
		},
		{
			"buffer":0,
			"byteLength":80736,
			"byteOffset":1419924,
			"target":34962
		},
		{
			"buffer":0,
			"byteLength":80736,
			"byteOffset":1500660,
			"target":34962
		},
		{
			"buffer":0,
			"byteLength":53824,
			"byteOffset":1581396,
			"target":34962
		},
		{
			"buffer":0,
			"byteLength":45792,
			"byteOffset":1635220,
			"target":34963
		}
	],
	"buffers":[
		{
			"byteLength":1681012,
			"uri":"GripperFinger1.bin"
		}
	]
}
