{
	"asset":{
		"generator":"Khronos glTF Blender I/O v4.1.63",
		"version":"2.0"
	},
	"scene":0,
	"scenes":[
		{
			"name":"Scene",
			"nodes":[
				0
			]
		}
	],
	"nodes":[
		{
			"mesh":0,
			"name":"Group1^2-Finger_85_Adaptive_Gripper"
		}
	],
	"materials":[
		{
			"doubleSided":true,
			"name":"0.796078_0.823529_0.937255_0.000000_0.001",
			"pbrMetallicRoughness":{
				"baseColorFactor":[
					0.7960784435272217,
					0.8235294222831726,
					0.9372549057006836,
					1
				],
				"metallicFactor":0.5,
				"roughnessFactor":0.5
			}
		},
		{
			"doubleSided":true,
			"name":"1.000000_1.000000_1.000000_0.000000_0.001",
			"pbrMetallicRoughness":{
				"metallicFactor":0.5,
				"roughnessFactor":0.5
			}
		},
		{
			"doubleSided":true,
			"name":"0.529412_0.568627_0.600000_0.000000_0.001",
			"pbrMetallicRoughness":{
				"baseColorFactor":[
					0.529411792755127,
					0.5686274766921997,
					0.6000000238418579,
					1
				],
				"metallicFactor":0.5,
				"roughnessFactor":0.5
			}
		},
		{
			"doubleSided":true,
			"name":"1.000000_0.756863_0.054902_0.000000_0.001",
			"pbrMetallicRoughness":{
				"baseColorFactor":[
					1,
					0.7568627595901489,
					0.054901961237192154,
					1
				],
				"metallicFactor":0.5,
				"roughnessFactor":0.5
			}
		},
		{
			"doubleSided":true,
			"name":"0.898039_0.917647_0.929412_0.000000_0.001",
			"pbrMetallicRoughness":{
				"baseColorFactor":[
					0.8980392217636108,
					0.9176470637321472,
					0.929411768913269,
					1
				],
				"metallicFactor":0.5,
				"roughnessFactor":0.5
			}
		}
	],
	"meshes":[
		{
			"name":"mesh125_mesh.001",
			"primitives":[
				{
					"attributes":{
						"POSITION":0,
						"NORMAL":1,
						"TEXCOORD_0":2
					},
					"indices":3,
					"material":0
				},
				{
					"attributes":{
						"POSITION":4,
						"NORMAL":5,
						"TEXCOORD_0":6
					},
					"indices":7,
					"material":1
				},
				{
					"attributes":{
						"POSITION":8,
						"NORMAL":9,
						"TEXCOORD_0":10
					},
					"indices":11,
					"material":2
				},
				{
					"attributes":{
						"POSITION":12,
						"NORMAL":13,
						"TEXCOORD_0":14
					},
					"indices":15,
					"material":3
				},
				{
					"attributes":{
						"POSITION":16,
						"NORMAL":17,
						"TEXCOORD_0":18
					},
					"indices":19,
					"material":4
				}
			]
		}
	],
	"accessors":[
		{
			"bufferView":0,
			"componentType":5126,
			"count":104235,
			"max":[
				0.04256165027618408,
				0.03750002011656761,
				0.08955150097608566
			],
			"min":[
				-0.04232492297887802,
				-0.03749997541308403,
				-0.004112474154680967
			],
			"type":"VEC3"
		},
		{
			"bufferView":1,
			"componentType":5126,
			"count":104235,
			"type":"VEC3"
		},
		{
			"bufferView":2,
			"componentType":5126,
			"count":104235,
			"type":"VEC2"
		},
		{
			"bufferView":3,
			"componentType":5125,
			"count":362610,
			"type":"SCALAR"
		},
		{
			"bufferView":4,
			"componentType":5126,
			"count":41061,
			"max":[
				0.01436836551874876,
				0.008750172331929207,
				0.08988750725984573
			],
			"min":[
				-0.014131633564829826,
				-0.008749996311962605,
				0.07788750529289246
			],
			"type":"VEC3"
		},
		{
			"bufferView":5,
			"componentType":5126,
			"count":41061,
			"type":"VEC3"
		},
		{
			"bufferView":6,
			"componentType":5126,
			"count":41061,
			"type":"VEC2"
		},
		{
			"bufferView":7,
			"componentType":5123,
			"count":207558,
			"type":"SCALAR"
		},
		{
			"bufferView":8,
			"componentType":5126,
			"count":15962,
			"max":[
				0.03761836513876915,
				0.03750001639127731,
				0.003100048517808318
			],
			"min":[
				-0.03738163784146309,
				-0.037499964237213135,
				-0.010999972000718117
			],
			"type":"VEC3"
		},
		{
			"bufferView":9,
			"componentType":5126,
			"count":15962,
			"type":"VEC3"
		},
		{
			"bufferView":10,
			"componentType":5126,
			"count":15962,
			"type":"VEC2"
		},
		{
			"bufferView":11,
			"componentType":5123,
			"count":35742,
			"type":"SCALAR"
		},
		{
			"bufferView":12,
			"componentType":5126,
			"count":12430,
			"max":[
				0.002354698022827506,
				0.003655168227851391,
				-0.0020314822904765606
			],
			"min":[
				-0.05479529872536659,
				-0.0029725288040935993,
				-0.007755033206194639
			],
			"type":"VEC3"
		},
		{
			"bufferView":13,
			"componentType":5126,
			"count":12430,
			"type":"VEC3"
		},
		{
			"bufferView":14,
			"componentType":5126,
			"count":12430,
			"type":"VEC2"
		},
		{
			"bufferView":15,
			"componentType":5123,
			"count":66522,
			"type":"SCALAR"
		},
		{
			"bufferView":16,
			"componentType":5126,
			"count":5932,
			"max":[
				0.01561836525797844,
				0.009999996982514858,
				0.08988750725984573
			],
			"min":[
				-0.01538163237273693,
				-0.009999996982514858,
				0.08588750660419464
			],
			"type":"VEC3"
		},
		{
			"bufferView":17,
			"componentType":5126,
			"count":5932,
			"type":"VEC3"
		},
		{
			"bufferView":18,
			"componentType":5126,
			"count":5932,
			"type":"VEC2"
		},
		{
			"bufferView":19,
			"componentType":5123,
			"count":14100,
			"type":"SCALAR"
		}
	],
	"bufferViews":[
		{
			"buffer":0,
			"byteLength":1250820,
			"byteOffset":0,
			"target":34962
		},
		{
			"buffer":0,
			"byteLength":1250820,
			"byteOffset":1250820,
			"target":34962
		},
		{
			"buffer":0,
			"byteLength":833880,
			"byteOffset":2501640,
			"target":34962
		},
		{
			"buffer":0,
			"byteLength":1450440,
			"byteOffset":3335520,
			"target":34963
		},
		{
			"buffer":0,
			"byteLength":492732,
			"byteOffset":4785960,
			"target":34962
		},
		{
			"buffer":0,
			"byteLength":492732,
			"byteOffset":5278692,
			"target":34962
		},
		{
			"buffer":0,
			"byteLength":328488,
			"byteOffset":5771424,
			"target":34962
		},
		{
			"buffer":0,
			"byteLength":415116,
			"byteOffset":6099912,
			"target":34963
		},
		{
			"buffer":0,
			"byteLength":191544,
			"byteOffset":6515028,
			"target":34962
		},
		{
			"buffer":0,
			"byteLength":191544,
			"byteOffset":6706572,
			"target":34962
		},
		{
			"buffer":0,
			"byteLength":127696,
			"byteOffset":6898116,
			"target":34962
		},
		{
			"buffer":0,
			"byteLength":71484,
			"byteOffset":7025812,
			"target":34963
		},
		{
			"buffer":0,
			"byteLength":149160,
			"byteOffset":7097296,
			"target":34962
		},
		{
			"buffer":0,
			"byteLength":149160,
			"byteOffset":7246456,
			"target":34962
		},
		{
			"buffer":0,
			"byteLength":99440,
			"byteOffset":7395616,
			"target":34962
		},
		{
			"buffer":0,
			"byteLength":133044,
			"byteOffset":7495056,
			"target":34963
		},
		{
			"buffer":0,
			"byteLength":71184,
			"byteOffset":7628100,
			"target":34962
		},
		{
			"buffer":0,
			"byteLength":71184,
			"byteOffset":7699284,
			"target":34962
		},
		{
			"buffer":0,
			"byteLength":47456,
			"byteOffset":7770468,
			"target":34962
		},
		{
			"buffer":0,
			"byteLength":28200,
			"byteOffset":7817924,
			"target":34963
		}
	],
	"buffers":[
		{
			"byteLength":7846124,
			"uri":"GripperBase.bin"
		}
	]
}
