{
	"asset":{
		"generator":"Khronos glTF Blender I/O v4.1.63",
		"version":"2.0"
	},
	"scene":0,
	"scenes":[
		{
			"name":"Scene",
			"nodes":[
				0
			]
		}
	],
	"nodes":[
		{
			"mesh":0,
			"name":"Group2^2-Finger_85_Adaptive_Gripper"
		}
	],
	"materials":[
		{
			"doubleSided":true,
			"name":"0.078431_0.349020_0.917647_0.000000_0.002",
			"pbrMetallicRoughness":{
				"baseColorFactor":[
					0.0784313753247261,
					0.3490196168422699,
					0.9176470637321472,
					1
				],
				"metallicFactor":0.5,
				"roughnessFactor":0.5
			}
		},
		{
			"doubleSided":true,
			"name":"0.792157_0.819608_0.933333_0.000000_0.002",
			"pbrMetallicRoughness":{
				"baseColorFactor":[
					0.7921568751335144,
					0.8196078538894653,
					0.9333333373069763,
					1
				],
				"metallicFactor":0.5,
				"roughnessFactor":0.5
			}
		},
		{
			"doubleSided":true,
			"name":"1.000000_0.756863_0.054902_0.000000_0.003",
			"pbrMetallicRoughness":{
				"baseColorFactor":[
					1,
					0.7568627595901489,
					0.054901961237192154,
					1
				],
				"metallicFactor":0.5,
				"roughnessFactor":0.5
			}
		}
	],
	"meshes":[
		{
			"name":"mesh73_mesh.002",
			"primitives":[
				{
					"attributes":{
						"POSITION":0,
						"NORMAL":1,
						"TEXCOORD_0":2
					},
					"indices":3,
					"material":0
				},
				{
					"attributes":{
						"POSITION":4,
						"NORMAL":5,
						"TEXCOORD_0":6
					},
					"indices":7,
					"material":1
				},
				{
					"attributes":{
						"POSITION":8,
						"NORMAL":9,
						"TEXCOORD_0":10
					},
					"indices":11,
					"material":2
				}
			]
		}
	],
	"accessors":[
		{
			"bufferView":0,
			"componentType":5126,
			"count":30271,
			"max":[
				0.143108531832695,
				0.019474774599075317,
				-0.006818640045821667
			],
			"min":[
				0.04543605074286461,
				-0.019525229930877686,
				-0.07349056750535965
			],
			"type":"VEC3"
		},
		{
			"bufferView":1,
			"componentType":5126,
			"count":30271,
			"type":"VEC3"
		},
		{
			"bufferView":2,
			"componentType":5126,
			"count":30271,
			"type":"VEC2"
		},
		{
			"bufferView":3,
			"componentType":5123,
			"count":69726,
			"type":"SCALAR"
		},
		{
			"bufferView":4,
			"componentType":5126,
			"count":8323,
			"max":[
				0.10466941446065903,
				0.013982780277729034,
				-0.056293003261089325
			],
			"min":[
				0.04543738812208176,
				-0.01301722601056099,
				-0.07348930090665817
			],
			"type":"VEC3"
		},
		{
			"bufferView":5,
			"componentType":5126,
			"count":8323,
			"type":"VEC3"
		},
		{
			"bufferView":6,
			"componentType":5126,
			"count":8323,
			"type":"VEC2"
		},
		{
			"bufferView":7,
			"componentType":5123,
			"count":22620,
			"type":"SCALAR"
		},
		{
			"bufferView":8,
			"componentType":5126,
			"count":6732,
			"max":[
				0.15018072724342346,
				0.012166764587163925,
				-0.04196228086948395
			],
			"min":[
				0.11204609274864197,
				-0.013233255594968796,
				-0.048514898866415024
			],
			"type":"VEC3"
		},
		{
			"bufferView":9,
			"componentType":5126,
			"count":6732,
			"type":"VEC3"
		},
		{
			"bufferView":10,
			"componentType":5126,
			"count":6732,
			"type":"VEC2"
		},
		{
			"bufferView":11,
			"componentType":5123,
			"count":22896,
			"type":"SCALAR"
		}
	],
	"bufferViews":[
		{
			"buffer":0,
			"byteLength":363252,
			"byteOffset":0,
			"target":34962
		},
		{
			"buffer":0,
			"byteLength":363252,
			"byteOffset":363252,
			"target":34962
		},
		{
			"buffer":0,
			"byteLength":242168,
			"byteOffset":726504,
			"target":34962
		},
		{
			"buffer":0,
			"byteLength":139452,
			"byteOffset":968672,
			"target":34963
		},
		{
			"buffer":0,
			"byteLength":99876,
			"byteOffset":1108124,
			"target":34962
		},
		{
			"buffer":0,
			"byteLength":99876,
			"byteOffset":1208000,
			"target":34962
		},
		{
			"buffer":0,
			"byteLength":66584,
			"byteOffset":1307876,
			"target":34962
		},
		{
			"buffer":0,
			"byteLength":45240,
			"byteOffset":1374460,
			"target":34963
		},
		{
			"buffer":0,
			"byteLength":80784,
			"byteOffset":1419700,
			"target":34962
		},
		{
			"buffer":0,
			"byteLength":80784,
			"byteOffset":1500484,
			"target":34962
		},
		{
			"buffer":0,
			"byteLength":53856,
			"byteOffset":1581268,
			"target":34962
		},
		{
			"buffer":0,
			"byteLength":45792,
			"byteOffset":1635124,
			"target":34963
		}
	],
	"buffers":[
		{
			"byteLength":1680916,
			"uri":"GripperFinger2.bin"
		}
	]
}
