{
	"asset":{
		"generator":"Khronos glTF Blender I/O v4.1.63",
		"version":"2.0"
	},
	"scene":0,
	"scenes":[
		{
			"name":"Scene",
			"nodes":[
				39
			]
		}
	],
	"nodes":[
		{
			"mesh":0,
			"name":"Gripper, Base Plate"
		},
		{
			"children":[
				0
			],
			"name":"occurrence of Gripper, Base Plate",
			"rotation":[
				0.70710688829422,
				0,
				0,
				0.7071066498756409
			],
			"translation":[
				0.00011836335033876821,
				0,
				0.09000000357627869
			]
		},
		{
			"mesh":1,
			"name":"Gripper, Cable Assy"
		},
		{
			"children":[
				2
			],
			"name":"occurrence of Gripper, Cable Assy",
			"rotation":[
				0.70710688829422,
				0,
				0,
				0.7071066498756409
			],
			"translation":[
				0.00011836335033876821,
				0,
				0.09000000357627869
			]
		},
		{
			"mesh":2,
			"name":"Gripper, Circuit Card"
		},
		{
			"children":[
				4
			],
			"name":"occurrence of Gripper, Circuit Card",
			"rotation":[
				0.70710688829422,
				0,
				0,
				0.7071066498756409
			],
			"translation":[
				0.00011836335033876821,
				0,
				0.09000000357627869
			]
		},
		{
			"children":[
				1,
				3,
				5
			],
			"name":"Assembly 1 (1) <1>"
		},
		{
			"mesh":3,
			"name":"Group1^2-Finger_85_Adaptive_Gripper"
		},
		{
			"children":[
				7
			],
			"name":"occurrence of Group1^2-Finger_85_Adaptive_Gripper",
			"rotation":[
				0.70710688829422,
				0,
				0,
				0.7071066498756409
			],
			"translation":[
				0.00011836335033876821,
				0,
				0.08988749980926514
			]
		},
		{
			"mesh":4,
			"name":"Group2^2-Finger_85_Adaptive_Gripper"
		},
		{
			"children":[
				9
			],
			"name":"occurrence of Group2^2-Finger_85_Adaptive_Gripper",
			"rotation":[
				0.6644630432128906,
				0.2418447881937027,
				-0.2418447881937027,
				0.6644629836082458
			],
			"translation":[
				0.01281836349517107,
				-2.5226190700777806e-05,
				0.061307501047849655
			]
		},
		{
			"mesh":4,
			"name":"Group2^2-Finger_85_Adaptive_Gripper.001"
		},
		{
			"children":[
				11
			],
			"name":"occurrence of Group2^2-Finger_85_Adaptive_Gripper.001",
			"rotation":[
				0.6644630432128906,
				-0.2418447881937027,
				0.2418447881937027,
				0.6644629836082458
			],
			"translation":[
				-0.01258163619786501,
				-0.0010252152569592,
				0.061307501047849655
			]
		},
		{
			"mesh":5,
			"name":"Group3^2-Finger_85_Adaptive_Gripper"
		},
		{
			"children":[
				13
			],
			"name":"occurrence of Group3^2-Finger_85_Adaptive_Gripper",
			"rotation":[
				0.70710688829422,
				0,
				0,
				0.7071066498756409
			],
			"translation":[
				0.0009835861856117845,
				-0.0005198894068598747,
				0.09062834084033966
			]
		},
		{
			"mesh":5,
			"name":"Group3^2-Finger_85_Adaptive_Gripper.001"
		},
		{
			"children":[
				15
			],
			"name":"occurrence of Group3^2-Finger_85_Adaptive_Gripper.001",
			"rotation":[
				-0.0019437199225649238,
				0.7071041464805603,
				0.7071040868759155,
				0.0019437199225649238
			],
			"translation":[
				-0.000666606065351516,
				-0.000533226178959012,
				0.09035200625658035
			]
		},
		{
			"mesh":6,
			"name":"Group4^2-Finger_85_Adaptive_Gripper"
		},
		{
			"children":[
				17
			],
			"name":"occurrence of Group4^2-Finger_85_Adaptive_Gripper",
			"rotation":[
				0.7070716619491577,
				0.00704647833481431,
				-0.007046478800475597,
				0.7070716619491577
			],
			"translation":[
				0.0008117196848616004,
				-1.188940314023057e-05,
				0.08927066624164581
			]
		},
		{
			"mesh":6,
			"name":"Group4^2-Finger_85_Adaptive_Gripper.001"
		},
		{
			"children":[
				19
			],
			"name":"occurrence of Group4^2-Finger_85_Adaptive_Gripper.001",
			"rotation":[
				0.7020782232284546,
				0.08417964726686478,
				-0.08417964726686478,
				0.7020782232284546
			],
			"translation":[
				0.1318814754486084,
				0.00048277381574735045,
				0.07482887804508209
			]
		},
		{
			"mesh":7,
			"name":"Group5^2-Finger_85_Adaptive_Gripper"
		},
		{
			"children":[
				21
			],
			"name":"occurrence of Group5^2-Finger_85_Adaptive_Gripper",
			"rotation":[
				0.7070595622062683,
				-0.00818013958632946,
				0.008180140517652035,
				0.7070593237876892
			],
			"translation":[
				-0.0006853934610262513,
				-2.5226190700777806e-05,
				0.08917013555765152
			]
		},
		{
			"mesh":7,
			"name":"Group5^2-Finger_85_Adaptive_Gripper.001"
		},
		{
			"children":[
				23
			],
			"name":"occurrence of Group5^2-Finger_85_Adaptive_Gripper.001",
			"rotation":[
				-0.007046478800475597,
				-0.7070716619491577,
				-0.7070716619491577,
				0.007046478800475597
			],
			"translation":[
				0.0008117196848616004,
				-2.5226188881788403e-05,
				0.08927066624164581
			]
		},
		{
			"mesh":8,
			"name":"Group6^2-Finger_85_Adaptive_Gripper"
		},
		{
			"children":[
				25
			],
			"name":"occurrence of Group6^2-Finger_85_Adaptive_Gripper",
			"translation":[
				0.00011836335033876821,
				0,
				0.08588749915361404
			]
		},
		{
			"mesh":9,
			"name":"Group7^2-Finger_85_Adaptive_Gripper"
		},
		{
			"children":[
				27
			],
			"name":"occurrence of Group7^2-Finger_85_Adaptive_Gripper",
			"rotation":[
				0.70710688829422,
				0,
				0,
				0.7071066498756409
			],
			"translation":[
				0.023118363693356514,
				0,
				0.08988749980926514
			]
		},
		{
			"mesh":9,
			"name":"Group7^2-Finger_85_Adaptive_Gripper.001"
		},
		{
			"children":[
				29
			],
			"name":"occurrence of Group7^2-Finger_85_Adaptive_Gripper.001",
			"rotation":[
				0.70710688829422,
				0,
				0,
				0.7071066498756409
			],
			"translation":[
				0.00011836335033876821,
				0,
				0.08988749980926514
			]
		},
		{
			"mesh":9,
			"name":"Group7^2-Finger_85_Adaptive_Gripper.002"
		},
		{
			"children":[
				31
			],
			"name":"occurrence of Group7^2-Finger_85_Adaptive_Gripper.002",
			"rotation":[
				0.70710688829422,
				0,
				0,
				0.7071066498756409
			],
			"translation":[
				0.023118363693356514,
				0.012000174261629581,
				0.08988749980926514
			]
		},
		{
			"mesh":9,
			"name":"Group7^2-Finger_85_Adaptive_Gripper.003"
		},
		{
			"children":[
				33
			],
			"name":"occurrence of Group7^2-Finger_85_Adaptive_Gripper.003",
			"rotation":[
				0.70710688829422,
				0,
				0,
				0.7071066498756409
			],
			"translation":[
				0.00011836335033876821,
				0.012000174261629581,
				0.08988749980926514
			]
		},
		{
			"mesh":10,
			"name":"Part 2"
		},
		{
			"children":[
				35
			],
			"name":"occurrence of Part 2",
			"rotation":[
				-3.135840961476788e-05,
				-0.7071068286895752,
				-0.7071068286895752,
				3.13584205287043e-05
			],
			"translation":[
				-0.09126876294612885,
				-0.0005198894068598747,
				0.09063241630792618
			]
		},
		{
			"mesh":10,
			"name":"Part 2.001"
		},
		{
			"children":[
				37
			],
			"name":"occurrence of Part 2.001",
			"rotation":[
				0.7071041464805603,
				-0.001975195948034525,
				0.0019751961808651686,
				0.707103967666626
			],
			"translation":[
				0.09158432483673096,
				-0.000533226178959012,
				0.09086327999830246
			]
		},
		{
			"children":[
				6,
				8,
				10,
				12,
				14,
				16,
				18,
				20,
				22,
				24,
				26,
				28,
				30,
				32,
				34,
				36,
				38
			],
			"name":"Robotiq Gripper, 85mm Copy 1"
		}
	],
	"materials":[
		{
			"doubleSided":true,
			"name":"0.529412_0.568627_0.600000_0.000000_0.000000",
			"pbrMetallicRoughness":{
				"baseColorFactor":[
					0.529411792755127,
					0.5686274766921997,
					0.6000000238418579,
					1
				],
				"metallicFactor":0
			}
		},
		{
			"doubleSided":true,
			"name":"1.000000_0.756863_0.054902_0.000000_0.000000",
			"pbrMetallicRoughness":{
				"baseColorFactor":[
					1,
					0.7568627595901489,
					0.054901961237192154,
					1
				],
				"metallicFactor":0
			}
		},
		{
			"doubleSided":true,
			"name":"0.105882_0.372549_0.666667_0.000000_0.000000",
			"pbrMetallicRoughness":{
				"baseColorFactor":[
					0.10588235408067703,
					0.37254902720451355,
					0.6666666865348816,
					1
				],
				"metallicFactor":0
			}
		},
		{
			"doubleSided":true,
			"name":"0.796078_0.823529_0.937255_0.000000_0.000000",
			"pbrMetallicRoughness":{
				"baseColorFactor":[
					0.7960784435272217,
					0.8235294222831726,
					0.9372549057006836,
					1
				],
				"metallicFactor":0
			}
		},
		{
			"doubleSided":true,
			"name":"0.078431_0.349020_0.917647_0.000000_0.000000",
			"pbrMetallicRoughness":{
				"baseColorFactor":[
					0.0784313753247261,
					0.3490196168422699,
					0.9176470637321472,
					1
				],
				"metallicFactor":0
			}
		},
		{
			"doubleSided":true,
			"name":"0.792157_0.819608_0.933333_0.000000_0.000000",
			"pbrMetallicRoughness":{
				"baseColorFactor":[
					0.7921568751335144,
					0.8196078538894653,
					0.9333333373069763,
					1
				],
				"metallicFactor":0
			}
		},
		{
			"doubleSided":true,
			"name":"0.898039_0.917647_0.929412_0.000000_0.000000",
			"pbrMetallicRoughness":{
				"baseColorFactor":[
					0.8980392217636108,
					0.9176470637321472,
					0.929411768913269,
					1
				],
				"metallicFactor":0
			}
		},
		{
			"doubleSided":true,
			"name":"1.000000_1.000000_1.000000_0.000000_0.000000",
			"pbrMetallicRoughness":{
				"metallicFactor":0
			}
		}
	],
	"meshes":[
		{
			"name":"mesh1074_mesh",
			"primitives":[
				{
					"attributes":{
						"POSITION":0,
						"NORMAL":1,
						"TEXCOORD_0":2
					},
					"indices":3,
					"material":0
				}
			]
		},
		{
			"name":"mesh1046_mesh",
			"primitives":[
				{
					"attributes":{
						"POSITION":4,
						"NORMAL":5,
						"TEXCOORD_0":6
					},
					"indices":7,
					"material":1
				}
			]
		},
		{
			"name":"mesh1060_mesh",
			"primitives":[
				{
					"attributes":{
						"POSITION":8,
						"NORMAL":9,
						"TEXCOORD_0":10
					},
					"indices":11,
					"material":2
				}
			]
		},
		{
			"name":"mesh125_mesh",
			"primitives":[
				{
					"attributes":{
						"POSITION":12,
						"NORMAL":13,
						"TEXCOORD_0":14
					},
					"indices":15,
					"material":3
				}
			]
		},
		{
			"name":"mesh73_mesh",
			"primitives":[
				{
					"attributes":{
						"POSITION":16,
						"NORMAL":17,
						"TEXCOORD_0":18
					},
					"indices":19,
					"material":4
				}
			]
		},
		{
			"name":"mesh901_mesh",
			"primitives":[
				{
					"attributes":{
						"POSITION":20,
						"NORMAL":21,
						"TEXCOORD_0":22
					},
					"indices":23,
					"material":4
				}
			]
		},
		{
			"name":"mesh27_mesh",
			"primitives":[
				{
					"attributes":{
						"POSITION":24,
						"NORMAL":25,
						"TEXCOORD_0":26
					},
					"indices":27,
					"material":5
				}
			]
		},
		{
			"name":"mesh992_mesh",
			"primitives":[
				{
					"attributes":{
						"POSITION":28,
						"NORMAL":29,
						"TEXCOORD_0":30
					},
					"indices":31,
					"material":4
				}
			]
		},
		{
			"name":"mesh962_mesh",
			"primitives":[
				{
					"attributes":{
						"POSITION":32,
						"NORMAL":33,
						"TEXCOORD_0":34
					},
					"indices":35,
					"material":6
				}
			]
		},
		{
			"name":"mesh0_mesh",
			"primitives":[
				{
					"attributes":{
						"POSITION":36,
						"NORMAL":37,
						"TEXCOORD_0":38
					},
					"indices":39,
					"material":7
				}
			]
		},
		{
			"name":"mesh1027_mesh",
			"primitives":[
				{
					"attributes":{
						"POSITION":40,
						"NORMAL":41,
						"TEXCOORD_0":42
					},
					"indices":43,
					"material":1
				}
			]
		}
	],
	"accessors":[
		{
			"bufferView":0,
			"componentType":5126,
			"count":14401,
			"max":[
				0.03750000149011612,
				-0.0869000032544136,
				0.03750000149011612
			],
			"min":[
				-0.03750000149011612,
				-0.10100000351667404,
				-0.03750000149011612
			],
			"type":"VEC3"
		},
		{
			"bufferView":1,
			"componentType":5126,
			"count":14401,
			"type":"VEC3"
		},
		{
			"bufferView":2,
			"componentType":5126,
			"count":14401,
			"type":"VEC2"
		},
		{
			"bufferView":3,
			"componentType":5123,
			"count":35742,
			"type":"SCALAR"
		},
		{
			"bufferView":4,
			"componentType":5126,
			"count":12193,
			"max":[
				0.0022363332100212574,
				-0.09203152358531952,
				0.0029725581407546997
			],
			"min":[
				-0.05491366609930992,
				-0.0977550745010376,
				-0.0036551393568515778
			],
			"type":"VEC3"
		},
		{
			"bufferView":5,
			"componentType":5126,
			"count":12193,
			"type":"VEC3"
		},
		{
			"bufferView":6,
			"componentType":5126,
			"count":12193,
			"type":"VEC2"
		},
		{
			"bufferView":7,
			"componentType":5123,
			"count":66522,
			"type":"SCALAR"
		},
		{
			"bufferView":8,
			"componentType":5126,
			"count":1059,
			"max":[
				0.025127390399575233,
				-0.09300000220537186,
				0.01427179854363203
			],
			"min":[
				-0.0041136667132377625,
				-0.0949999988079071,
				-0.007899541407823563
			],
			"type":"VEC3"
		},
		{
			"bufferView":9,
			"componentType":5126,
			"count":1059,
			"type":"VEC3"
		},
		{
			"bufferView":10,
			"componentType":5126,
			"count":1059,
			"type":"VEC2"
		},
		{
			"bufferView":11,
			"componentType":5123,
			"count":2352,
			"type":"SCALAR"
		},
		{
			"bufferView":12,
			"componentType":5126,
			"count":99664,
			"max":[
				0.04244328662753105,
				-0.0003360058763064444,
				0.03750000149011612
			],
			"min":[
				-0.04244328662753105,
				-0.09399999678134918,
				-0.03750000149011612
			],
			"type":"VEC3"
		},
		{
			"bufferView":13,
			"componentType":5126,
			"count":99664,
			"type":"VEC3"
		},
		{
			"bufferView":14,
			"componentType":5126,
			"count":99664,
			"type":"VEC2"
		},
		{
			"bufferView":15,
			"componentType":5125,
			"count":362610,
			"type":"SCALAR"
		},
		{
			"bufferView":16,
			"componentType":5126,
			"count":8371,
			"max":[
				0.006000000052154064,
				0.06315000355243683,
				0.019500000402331352
			],
			"min":[
				-0.006000000052154064,
				-0.005998610984534025,
				-0.019500000402331352
			],
			"type":"VEC3"
		},
		{
			"bufferView":17,
			"componentType":5126,
			"count":8371,
			"type":"VEC3"
		},
		{
			"bufferView":18,
			"componentType":5126,
			"count":8371,
			"type":"VEC2"
		},
		{
			"bufferView":19,
			"componentType":5123,
			"count":24444,
			"type":"SCALAR"
		},
		{
			"bufferView":20,
			"componentType":5126,
			"count":12839,
			"max":[
				-0.04430021718144417,
				0.05245879665017128,
				0.007499999832361937
			],
			"min":[
				-0.07420196384191513,
				0.0019439312163740396,
				-0.007499999832361937
			],
			"type":"VEC3"
		},
		{
			"bufferView":21,
			"componentType":5126,
			"count":12839,
			"type":"VEC3"
		},
		{
			"bufferView":22,
			"componentType":5126,
			"count":12839,
			"type":"VEC2"
		},
		{
			"bufferView":23,
			"componentType":5123,
			"count":31140,
			"type":"SCALAR"
		},
		{
			"bufferView":24,
			"componentType":5126,
			"count":7941,
			"max":[
				-0.056087199598550797,
				0.013943920843303204,
				0.013500000350177288
			],
			"min":[
				-0.07420195639133453,
				-0.045180998742580414,
				-0.013500000350177288
			],
			"type":"VEC3"
		},
		{
			"bufferView":25,
			"componentType":5126,
			"count":7941,
			"type":"VEC3"
		},
		{
			"bufferView":26,
			"componentType":5126,
			"count":7941,
			"type":"VEC2"
		},
		{
			"bufferView":27,
			"componentType":5123,
			"count":22620,
			"type":"SCALAR"
		},
		{
			"bufferView":28,
			"componentType":5126,
			"count":5033,
			"max":[
				0.0693739578127861,
				-0.02223472110927105,
				0.012000000104308128
			],
			"min":[
				0.02310132049024105,
				-0.045179788023233414,
				-0.012000000104308128
			],
			"type":"VEC3"
		},
		{
			"bufferView":29,
			"componentType":5126,
			"count":5033,
			"type":"VEC3"
		},
		{
			"bufferView":30,
			"componentType":5126,
			"count":5033,
			"type":"VEC2"
		},
		{
			"bufferView":31,
			"componentType":5123,
			"count":14142,
			"type":"SCALAR"
		},
		{
			"bufferView":32,
			"componentType":5126,
			"count":4736,
			"max":[
				0.01549999974668026,
				0.009999999776482582,
				0.004000000189989805
			],
			"min":[
				-0.01549999974668026,
				-0.009999999776482582,
				-2.2251607223158754e-18
			],
			"type":"VEC3"
		},
		{
			"bufferView":33,
			"componentType":5126,
			"count":4736,
			"type":"VEC3"
		},
		{
			"bufferView":34,
			"componentType":5126,
			"count":4736,
			"type":"VEC2"
		},
		{
			"bufferView":35,
			"componentType":5123,
			"count":14100,
			"type":"SCALAR"
		},
		{
			"bufferView":36,
			"componentType":5126,
			"count":13110,
			"max":[
				-0.008750000037252903,
				1.001007528142429e-14,
				0.008750000037252903
			],
			"min":[
				-0.01425000000745058,
				-0.012000000104308128,
				0.0032500000670552254
			],
			"type":"VEC3"
		},
		{
			"bufferView":37,
			"componentType":5126,
			"count":13110,
			"type":"VEC3"
		},
		{
			"bufferView":38,
			"componentType":5126,
			"count":13110,
			"type":"VEC2"
		},
		{
			"bufferView":39,
			"componentType":5123,
			"count":69186,
			"type":"SCALAR"
		},
		{
			"bufferView":40,
			"componentType":5126,
			"count":5965,
			"max":[
				-0.04294852167367935,
				0.059558507055044174,
				0.01269999984651804
			],
			"min":[
				-0.04930021986365318,
				0.02145829051733017,
				-0.01269999984651804
			],
			"type":"VEC3"
		},
		{
			"bufferView":41,
			"componentType":5126,
			"count":5965,
			"type":"VEC3"
		},
		{
			"bufferView":42,
			"componentType":5126,
			"count":5965,
			"type":"VEC2"
		},
		{
			"bufferView":43,
			"componentType":5123,
			"count":22896,
			"type":"SCALAR"
		}
	],
	"bufferViews":[
		{
			"buffer":0,
			"byteLength":172812,
			"byteOffset":0,
			"target":34962
		},
		{
			"buffer":0,
			"byteLength":172812,
			"byteOffset":172812,
			"target":34962
		},
		{
			"buffer":0,
			"byteLength":115208,
			"byteOffset":345624,
			"target":34962
		},
		{
			"buffer":0,
			"byteLength":71484,
			"byteOffset":460832,
			"target":34963
		},
		{
			"buffer":0,
			"byteLength":146316,
			"byteOffset":532316,
			"target":34962
		},
		{
			"buffer":0,
			"byteLength":146316,
			"byteOffset":678632,
			"target":34962
		},
		{
			"buffer":0,
			"byteLength":97544,
			"byteOffset":824948,
			"target":34962
		},
		{
			"buffer":0,
			"byteLength":133044,
			"byteOffset":922492,
			"target":34963
		},
		{
			"buffer":0,
			"byteLength":12708,
			"byteOffset":1055536,
			"target":34962
		},
		{
			"buffer":0,
			"byteLength":12708,
			"byteOffset":1068244,
			"target":34962
		},
		{
			"buffer":0,
			"byteLength":8472,
			"byteOffset":1080952,
			"target":34962
		},
		{
			"buffer":0,
			"byteLength":4704,
			"byteOffset":1089424,
			"target":34963
		},
		{
			"buffer":0,
			"byteLength":1195968,
			"byteOffset":1094128,
			"target":34962
		},
		{
			"buffer":0,
			"byteLength":1195968,
			"byteOffset":2290096,
			"target":34962
		},
		{
			"buffer":0,
			"byteLength":797312,
			"byteOffset":3486064,
			"target":34962
		},
		{
			"buffer":0,
			"byteLength":1450440,
			"byteOffset":4283376,
			"target":34963
		},
		{
			"buffer":0,
			"byteLength":100452,
			"byteOffset":5733816,
			"target":34962
		},
		{
			"buffer":0,
			"byteLength":100452,
			"byteOffset":5834268,
			"target":34962
		},
		{
			"buffer":0,
			"byteLength":66968,
			"byteOffset":5934720,
			"target":34962
		},
		{
			"buffer":0,
			"byteLength":48888,
			"byteOffset":6001688,
			"target":34963
		},
		{
			"buffer":0,
			"byteLength":154068,
			"byteOffset":6050576,
			"target":34962
		},
		{
			"buffer":0,
			"byteLength":154068,
			"byteOffset":6204644,
			"target":34962
		},
		{
			"buffer":0,
			"byteLength":102712,
			"byteOffset":6358712,
			"target":34962
		},
		{
			"buffer":0,
			"byteLength":62280,
			"byteOffset":6461424,
			"target":34963
		},
		{
			"buffer":0,
			"byteLength":95292,
			"byteOffset":6523704,
			"target":34962
		},
		{
			"buffer":0,
			"byteLength":95292,
			"byteOffset":6618996,
			"target":34962
		},
		{
			"buffer":0,
			"byteLength":63528,
			"byteOffset":6714288,
			"target":34962
		},
		{
			"buffer":0,
			"byteLength":45240,
			"byteOffset":6777816,
			"target":34963
		},
		{
			"buffer":0,
			"byteLength":60396,
			"byteOffset":6823056,
			"target":34962
		},
		{
			"buffer":0,
			"byteLength":60396,
			"byteOffset":6883452,
			"target":34962
		},
		{
			"buffer":0,
			"byteLength":40264,
			"byteOffset":6943848,
			"target":34962
		},
		{
			"buffer":0,
			"byteLength":28284,
			"byteOffset":6984112,
			"target":34963
		},
		{
			"buffer":0,
			"byteLength":56832,
			"byteOffset":7012396,
			"target":34962
		},
		{
			"buffer":0,
			"byteLength":56832,
			"byteOffset":7069228,
			"target":34962
		},
		{
			"buffer":0,
			"byteLength":37888,
			"byteOffset":7126060,
			"target":34962
		},
		{
			"buffer":0,
			"byteLength":28200,
			"byteOffset":7163948,
			"target":34963
		},
		{
			"buffer":0,
			"byteLength":157320,
			"byteOffset":7192148,
			"target":34962
		},
		{
			"buffer":0,
			"byteLength":157320,
			"byteOffset":7349468,
			"target":34962
		},
		{
			"buffer":0,
			"byteLength":104880,
			"byteOffset":7506788,
			"target":34962
		},
		{
			"buffer":0,
			"byteLength":138372,
			"byteOffset":7611668,
			"target":34963
		},
		{
			"buffer":0,
			"byteLength":71580,
			"byteOffset":7750040,
			"target":34962
		},
		{
			"buffer":0,
			"byteLength":71580,
			"byteOffset":7821620,
			"target":34962
		},
		{
			"buffer":0,
			"byteLength":47720,
			"byteOffset":7893200,
			"target":34962
		},
		{
			"buffer":0,
			"byteLength":45792,
			"byteOffset":7940920,
			"target":34963
		}
	],
	"buffers":[
		{
			"byteLength":7986712,
			"uri":"RobotiqGripper.bin"
		}
	]
}
