{
	"asset":{
		"generator":"Khronos glTF Blender I/O v4.1.63",
		"version":"2.0"
	},
	"scene":0,
	"scenes":[
		{
			"name":"Scene",
			"nodes":[
				0
			]
		}
	],
	"nodes":[
		{
			"mesh":0,
			"name":"Link1_UR5_STEP"
		}
	],
	"materials":[
		{
			"doubleSided":true,
			"name":"mat_0.001",
			"pbrMetallicRoughness":{
				"baseColorFactor":[
					1,
					1,
					0.2158605307340622,
					1
				],
				"metallicFactor":0.5,
				"roughnessFactor":0.5
			}
		},
		{
			"doubleSided":true,
			"name":"mat_1.001",
			"pbrMetallicRoughness":{
				"baseColorFactor":[
					0.19806931912899017,
					0.5906188488006592,
					1,
					1
				],
				"metallicFactor":0.5,
				"roughnessFactor":0.5
			}
		},
		{
			"doubleSided":true,
			"name":"mat_2.001",
			"pbrMetallicRoughness":{
				"baseColorFactor":[
					0.5271151661872864,
					0.5271151661872864,
					0.5271151661872864,
					1
				],
				"metallicFactor":0.5,
				"roughnessFactor":0.5
			}
		},
		{
			"doubleSided":true,
			"name":"mat_3.001",
			"pbrMetallicRoughness":{
				"baseColorFactor":[
					0.12213877588510513,
					0.12213877588510513,
					0.12213877588510513,
					1
				],
				"metallicFactor":0.5,
				"roughnessFactor":0.5
			}
		},
		{
			"doubleSided":true,
			"name":"mat_4.001",
			"pbrMetallicRoughness":{
				"baseColorFactor":[
					0.3813260495662689,
					0.3419143855571747,
					0.3049873411655426,
					1
				],
				"metallicFactor":0.5,
				"roughnessFactor":0.5
			}
		},
		{
			"doubleSided":true,
			"name":"mat_5.001",
			"pbrMetallicRoughness":{
				"baseColorFactor":[
					0.05126945301890373,
					0.05126945301890373,
					0.05126945301890373,
					1
				],
				"metallicFactor":0.5,
				"roughnessFactor":0.5
			}
		},
		{
			"doubleSided":true,
			"name":"mat_6.001",
			"pbrMetallicRoughness":{
				"baseColorFactor":[
					0.5906188488006592,
					0.6375969052314758,
					0.8549926280975342,
					1
				],
				"metallicFactor":0.5,
				"roughnessFactor":0.5
			}
		},
		{
			"doubleSided":true,
			"name":"mat_7.001",
			"pbrMetallicRoughness":{
				"baseColorFactor":[
					1,
					1,
					0,
					1
				],
				"metallicFactor":0.5,
				"roughnessFactor":0.5
			}
		}
	],
	"meshes":[
		{
			"name":"Link1_UR5_STEP",
			"primitives":[
				{
					"attributes":{
						"POSITION":0,
						"NORMAL":1
					},
					"indices":2,
					"material":0
				},
				{
					"attributes":{
						"POSITION":3,
						"NORMAL":4
					},
					"indices":5,
					"material":1
				},
				{
					"attributes":{
						"POSITION":6,
						"NORMAL":7
					},
					"indices":8,
					"material":2
				},
				{
					"attributes":{
						"POSITION":9,
						"NORMAL":10
					},
					"indices":11,
					"material":3
				},
				{
					"attributes":{
						"POSITION":12,
						"NORMAL":13
					},
					"indices":14,
					"material":4
				},
				{
					"attributes":{
						"POSITION":15,
						"NORMAL":16
					},
					"indices":17,
					"material":5
				},
				{
					"attributes":{
						"POSITION":18,
						"NORMAL":19
					},
					"indices":20,
					"material":6
				},
				{
					"attributes":{
						"POSITION":21,
						"NORMAL":22
					},
					"indices":23,
					"material":7
				}
			]
		}
	],
	"accessors":[
		{
			"bufferView":0,
			"componentType":5126,
			"count":4830,
			"max":[
				0.05924645811319351,
				0.22496655583381653,
				0.058882977813482285
			],
			"min":[
				-0.05874265357851982,
				0.17147321999073029,
				-0.058939848095178604
			],
			"type":"VEC3"
		},
		{
			"bufferView":1,
			"componentType":5126,
			"count":4830,
			"type":"VEC3"
		},
		{
			"bufferView":2,
			"componentType":5123,
			"count":13614,
			"type":"SCALAR"
		},
		{
			"bufferView":3,
			"componentType":5126,
			"count":5729,
			"max":[
				0.06009741872549057,
				0.23454168438911438,
				0.06009308993816376
			],
			"min":[
				-0.06009994447231293,
				0.17127199470996857,
				-0.060060832649469376
			],
			"type":"VEC3"
		},
		{
			"bufferView":4,
			"componentType":5126,
			"count":5729,
			"type":"VEC3"
		},
		{
			"bufferView":5,
			"componentType":5123,
			"count":17811,
			"type":"SCALAR"
		},
		{
			"bufferView":6,
			"componentType":5126,
			"count":1307,
			"max":[
				0.06020006164908409,
				0.22353552281856537,
				0.05800008773803711
			],
			"min":[
				-0.05799996480345726,
				0.09909997880458832,
				-0.058000095188617706
			],
			"type":"VEC3"
		},
		{
			"bufferView":7,
			"componentType":5126,
			"count":1307,
			"type":"VEC3"
		},
		{
			"bufferView":8,
			"componentType":5123,
			"count":4440,
			"type":"SCALAR"
		},
		{
			"bufferView":9,
			"componentType":5126,
			"count":1672,
			"max":[
				0.07360006123781204,
				0.22049877047538757,
				0.05782726779580116
			],
			"min":[
				0.060200028121471405,
				0.10450117290019989,
				-0.05782727524638176
			],
			"type":"VEC3"
		},
		{
			"bufferView":10,
			"componentType":5126,
			"count":1672,
			"type":"VEC3"
		},
		{
			"bufferView":11,
			"componentType":5123,
			"count":7368,
			"type":"SCALAR"
		},
		{
			"bufferView":12,
			"componentType":5126,
			"count":3192,
			"max":[
				0.03886250779032707,
				0.22527016699314117,
				0.038862444460392
			],
			"min":[
				-0.03886185213923454,
				0.21119190752506256,
				-0.03885892033576965
			],
			"type":"VEC3"
		},
		{
			"bufferView":13,
			"componentType":5126,
			"count":3192,
			"type":"VEC3"
		},
		{
			"bufferView":14,
			"componentType":5123,
			"count":10488,
			"type":"SCALAR"
		},
		{
			"bufferView":15,
			"componentType":5126,
			"count":375,
			"max":[
				0.07440005987882614,
				0.22047032415866852,
				0.05799301341176033
			],
			"min":[
				0.07360002398490906,
				0.10452961176633835,
				-0.05799302086234093
			],
			"type":"VEC3"
		},
		{
			"bufferView":16,
			"componentType":5126,
			"count":375,
			"type":"VEC3"
		},
		{
			"bufferView":17,
			"componentType":5123,
			"count":642,
			"type":"SCALAR"
		},
		{
			"bufferView":18,
			"componentType":5126,
			"count":233,
			"max":[
				0.05647391080856323,
				0.22092200815677643,
				0.05567415803670883
			],
			"min":[
				-0.056733518838882446,
				0.1729852259159088,
				-0.05556463822722435
			],
			"type":"VEC3"
		},
		{
			"bufferView":19,
			"componentType":5126,
			"count":233,
			"type":"VEC3"
		},
		{
			"bufferView":20,
			"componentType":5123,
			"count":441,
			"type":"SCALAR"
		},
		{
			"bufferView":21,
			"componentType":5126,
			"count":358,
			"max":[
				0.06020006164908409,
				0.22353552281856537,
				0.05800008773803711
			],
			"min":[
				-0.05799996480345726,
				0.09909997880458832,
				-0.058000095188617706
			],
			"type":"VEC3"
		},
		{
			"bufferView":22,
			"componentType":5126,
			"count":358,
			"type":"VEC3"
		},
		{
			"bufferView":23,
			"componentType":5123,
			"count":588,
			"type":"SCALAR"
		}
	],
	"bufferViews":[
		{
			"buffer":0,
			"byteLength":57960,
			"byteOffset":0,
			"target":34962
		},
		{
			"buffer":0,
			"byteLength":57960,
			"byteOffset":57960,
			"target":34962
		},
		{
			"buffer":0,
			"byteLength":27228,
			"byteOffset":115920,
			"target":34963
		},
		{
			"buffer":0,
			"byteLength":68748,
			"byteOffset":143148,
			"target":34962
		},
		{
			"buffer":0,
			"byteLength":68748,
			"byteOffset":211896,
			"target":34962
		},
		{
			"buffer":0,
			"byteLength":35622,
			"byteOffset":280644,
			"target":34963
		},
		{
			"buffer":0,
			"byteLength":15684,
			"byteOffset":316268,
			"target":34962
		},
		{
			"buffer":0,
			"byteLength":15684,
			"byteOffset":331952,
			"target":34962
		},
		{
			"buffer":0,
			"byteLength":8880,
			"byteOffset":347636,
			"target":34963
		},
		{
			"buffer":0,
			"byteLength":20064,
			"byteOffset":356516,
			"target":34962
		},
		{
			"buffer":0,
			"byteLength":20064,
			"byteOffset":376580,
			"target":34962
		},
		{
			"buffer":0,
			"byteLength":14736,
			"byteOffset":396644,
			"target":34963
		},
		{
			"buffer":0,
			"byteLength":38304,
			"byteOffset":411380,
			"target":34962
		},
		{
			"buffer":0,
			"byteLength":38304,
			"byteOffset":449684,
			"target":34962
		},
		{
			"buffer":0,
			"byteLength":20976,
			"byteOffset":487988,
			"target":34963
		},
		{
			"buffer":0,
			"byteLength":4500,
			"byteOffset":508964,
			"target":34962
		},
		{
			"buffer":0,
			"byteLength":4500,
			"byteOffset":513464,
			"target":34962
		},
		{
			"buffer":0,
			"byteLength":1284,
			"byteOffset":517964,
			"target":34963
		},
		{
			"buffer":0,
			"byteLength":2796,
			"byteOffset":519248,
			"target":34962
		},
		{
			"buffer":0,
			"byteLength":2796,
			"byteOffset":522044,
			"target":34962
		},
		{
			"buffer":0,
			"byteLength":882,
			"byteOffset":524840,
			"target":34963
		},
		{
			"buffer":0,
			"byteLength":4296,
			"byteOffset":525724,
			"target":34962
		},
		{
			"buffer":0,
			"byteLength":4296,
			"byteOffset":530020,
			"target":34962
		},
		{
			"buffer":0,
			"byteLength":1176,
			"byteOffset":534316,
			"target":34963
		}
	],
	"buffers":[
		{
			"byteLength":535492,
			"uri":"UR5e_j1.bin"
		}
	]
}
