{
	"asset":{
		"generator":"Khronos glTF Blender I/O v4.1.63",
		"version":"2.0"
	},
	"scene":0,
	"scenes":[
		{
			"name":"Scene",
			"nodes":[
				0
			]
		}
	],
	"nodes":[
		{
			"mesh":0,
			"name":"Link6_UR5_STEP004",
			"rotation":[
				0,
				0.7071068286895752,
				0,
				0.7071068286895752
			]
		}
	],
	"materials":[
		{
			"doubleSided":true,
			"name":"mat_0.007",
			"pbrMetallicRoughness":{
				"baseColorFactor":[
					0.12213877588510513,
					0.12213877588510513,
					0.12213877588510513,
					1
				],
				"metallicFactor":0.5,
				"roughnessFactor":0.5
			}
		},
		{
			"doubleSided":true,
			"name":"mat_1.007",
			"pbrMetallicRoughness":{
				"baseColorFactor":[
					0.44520121812820435,
					0.44520121812820435,
					0.44520121812820435,
					1
				],
				"metallicFactor":0.5,
				"roughnessFactor":0.5
			}
		},
		{
			"doubleSided":true,
			"name":"mat_2.007",
			"pbrMetallicRoughness":{
				"baseColorFactor":[
					0.5906188488006592,
					0.6375969052314758,
					0.8549926280975342,
					1
				],
				"metallicFactor":0.5,
				"roughnessFactor":0.5
			}
		}
	],
	"meshes":[
		{
			"name":"Link6_UR5_STEP004",
			"primitives":[
				{
					"attributes":{
						"POSITION":0,
						"NORMAL":1
					},
					"indices":2,
					"material":0
				},
				{
					"attributes":{
						"POSITION":3,
						"NORMAL":4
					},
					"indices":5,
					"material":1
				},
				{
					"attributes":{
						"POSITION":6,
						"NORMAL":7
					},
					"indices":8,
					"material":2
				}
			]
		}
	],
	"accessors":[
		{
			"bufferView":0,
			"componentType":5126,
			"count":3056,
			"max":[
				0.03750000149011612,
				0.03750000521540642,
				0.05325000360608101
			],
			"min":[
				-0.03750000149011612,
				-0.037499990314245224,
				0.04569998010993004
			],
			"type":"VEC3"
		},
		{
			"bufferView":1,
			"componentType":5126,
			"count":3056,
			"type":"VEC3"
		},
		{
			"bufferView":2,
			"componentType":5123,
			"count":13530,
			"type":"SCALAR"
		},
		{
			"bufferView":3,
			"componentType":5126,
			"count":2704,
			"max":[
				0.03750000149011612,
				0.04410000890493393,
				0.0989999920129776
			],
			"min":[
				-0.03750000149011612,
				-0.037499990314245224,
				0.05324998125433922
			],
			"type":"VEC3"
		},
		{
			"bufferView":4,
			"componentType":5126,
			"count":2704,
			"type":"VEC3"
		},
		{
			"bufferView":5,
			"componentType":5123,
			"count":7731,
			"type":"SCALAR"
		},
		{
			"bufferView":6,
			"componentType":5126,
			"count":672,
			"max":[
				0.015200000256299973,
				0.03400001302361488,
				0.08899999409914017
			],
			"min":[
				-0.01518984604626894,
				-0.03199997916817665,
				0.0622599832713604
			],
			"type":"VEC3"
		},
		{
			"bufferView":7,
			"componentType":5126,
			"count":672,
			"type":"VEC3"
		},
		{
			"bufferView":8,
			"componentType":5123,
			"count":1173,
			"type":"SCALAR"
		}
	],
	"bufferViews":[
		{
			"buffer":0,
			"byteLength":36672,
			"byteOffset":0,
			"target":34962
		},
		{
			"buffer":0,
			"byteLength":36672,
			"byteOffset":36672,
			"target":34962
		},
		{
			"buffer":0,
			"byteLength":27060,
			"byteOffset":73344,
			"target":34963
		},
		{
			"buffer":0,
			"byteLength":32448,
			"byteOffset":100404,
			"target":34962
		},
		{
			"buffer":0,
			"byteLength":32448,
			"byteOffset":132852,
			"target":34962
		},
		{
			"buffer":0,
			"byteLength":15462,
			"byteOffset":165300,
			"target":34963
		},
		{
			"buffer":0,
			"byteLength":8064,
			"byteOffset":180764,
			"target":34962
		},
		{
			"buffer":0,
			"byteLength":8064,
			"byteOffset":188828,
			"target":34962
		},
		{
			"buffer":0,
			"byteLength":2346,
			"byteOffset":196892,
			"target":34963
		}
	],
	"buffers":[
		{
			"byteLength":199240,
			"uri":"UR5e_j6.bin"
		}
	]
}
