{
	"asset":{
		"generator":"Khronos glTF Blender I/O v4.1.63",
		"version":"2.0"
	},
	"scene":0,
	"scenes":[
		{
			"name":"Scene",
			"nodes":[
				0
			]
		}
	],
	"nodes":[
		{
			"mesh":0,
			"name":"Link5_UR5_STEP001"
		}
	],
	"materials":[
		{
			"doubleSided":true,
			"name":"mat_1.006",
			"pbrMetallicRoughness":{
				"baseColorFactor":[
					0.19806931912899017,
					0.5906188488006592,
					1,
					1
				],
				"metallicFactor":0.5,
				"roughnessFactor":0.5
			}
		},
		{
			"doubleSided":true,
			"name":"mat_2.006",
			"pbrMetallicRoughness":{
				"baseColorFactor":[
					1,
					1,
					0.2158605307340622,
					1
				],
				"metallicFactor":0.5,
				"roughnessFactor":0.5
			}
		},
		{
			"doubleSided":true,
			"name":"mat_3.006",
			"pbrMetallicRoughness":{
				"baseColorFactor":[
					0.7835378050804138,
					0.7835378050804138,
					0.7835378050804138,
					1
				],
				"metallicFactor":0.5,
				"roughnessFactor":0.5
			}
		},
		{
			"doubleSided":true,
			"name":"mat_4.006",
			"pbrMetallicRoughness":{
				"baseColorFactor":[
					0.5906188488006592,
					0.6375969052314758,
					0.8549926280975342,
					1
				],
				"metallicFactor":0.5,
				"roughnessFactor":0.5
			}
		},
		{
			"doubleSided":true,
			"name":"mat_5.006",
			"pbrMetallicRoughness":{
				"baseColorFactor":[
					0.5271151661872864,
					0.5271151661872864,
					0.5271151661872864,
					1
				],
				"metallicFactor":0.5,
				"roughnessFactor":0.5
			}
		},
		{
			"doubleSided":true,
			"name":"mat_6.006",
			"pbrMetallicRoughness":{
				"baseColorFactor":[
					0.05126945301890373,
					0.05126945301890373,
					0.05126945301890373,
					1
				],
				"metallicFactor":0.5,
				"roughnessFactor":0.5
			}
		},
		{
			"doubleSided":true,
			"name":"mat_0.006",
			"pbrMetallicRoughness":{
				"baseColorFactor":[
					0.12213877588510513,
					0.12213877588510513,
					0.12213877588510513,
					1
				],
				"metallicFactor":0.5,
				"roughnessFactor":0.5
			}
		}
	],
	"meshes":[
		{
			"name":"Link5_UR5_STEP001",
			"primitives":[
				{
					"attributes":{
						"POSITION":0,
						"NORMAL":1
					},
					"indices":2,
					"material":0
				},
				{
					"attributes":{
						"POSITION":3,
						"NORMAL":4
					},
					"indices":5,
					"material":1
				},
				{
					"attributes":{
						"POSITION":6,
						"NORMAL":7
					},
					"indices":8,
					"material":2
				},
				{
					"attributes":{
						"POSITION":9,
						"NORMAL":10
					},
					"indices":11,
					"material":3
				},
				{
					"attributes":{
						"POSITION":12,
						"NORMAL":13
					},
					"indices":14,
					"material":4
				},
				{
					"attributes":{
						"POSITION":15,
						"NORMAL":16
					},
					"indices":17,
					"material":5
				},
				{
					"attributes":{
						"POSITION":18,
						"NORMAL":19
					},
					"indices":20,
					"material":6
				}
			]
		}
	],
	"accessors":[
		{
			"bufferView":0,
			"componentType":5126,
			"count":6367,
			"max":[
				-0.006753748748451471,
				0.039283636957407,
				0.039363712072372437
			],
			"min":[
				-0.05597037449479103,
				-0.03926529362797737,
				-0.03933630883693695
			],
			"type":"VEC3"
		},
		{
			"bufferView":1,
			"componentType":5126,
			"count":6367,
			"type":"VEC3"
		},
		{
			"bufferView":2,
			"componentType":5123,
			"count":22386,
			"type":"SCALAR"
		},
		{
			"bufferView":3,
			"componentType":5126,
			"count":3438,
			"max":[
				-0.007420218084007502,
				0.037898484617471695,
				0.03790711984038353
			],
			"min":[
				-0.049120381474494934,
				-0.03788837045431137,
				-0.03787962719798088
			],
			"type":"VEC3"
		},
		{
			"bufferView":4,
			"componentType":5126,
			"count":3438,
			"type":"VEC3"
		},
		{
			"bufferView":5,
			"componentType":5123,
			"count":9864,
			"type":"SCALAR"
		},
		{
			"bufferView":6,
			"componentType":5126,
			"count":2112,
			"max":[
				0.046359628438949585,
				0.0370958186686039,
				0.03731369972229004
			],
			"min":[
				-0.05112037807703018,
				-0.037095531821250916,
				-0.03728627786040306
			],
			"type":"VEC3"
		},
		{
			"bufferView":7,
			"componentType":5126,
			"count":2112,
			"type":"VEC3"
		},
		{
			"bufferView":8,
			"componentType":5123,
			"count":8076,
			"type":"SCALAR"
		},
		{
			"bufferView":9,
			"componentType":5126,
			"count":159,
			"max":[
				0.046359628438949585,
				0.03729470074176788,
				0.03751371055841446
			],
			"min":[
				0.04575962573289871,
				-0.037294428795576096,
				-0.03748628869652748
			],
			"type":"VEC3"
		},
		{
			"bufferView":10,
			"componentType":5126,
			"count":159,
			"type":"VEC3"
		},
		{
			"bufferView":11,
			"componentType":5123,
			"count":360,
			"type":"SCALAR"
		},
		{
			"bufferView":12,
			"componentType":5126,
			"count":907,
			"max":[
				0.04575963318347931,
				0.03750012069940567,
				0.03751379996538162
			],
			"min":[
				-0.03842984884977341,
				-0.04584992304444313,
				-0.03748630732297897
			],
			"type":"VEC3"
		},
		{
			"bufferView":13,
			"componentType":5126,
			"count":907,
			"type":"VEC3"
		},
		{
			"bufferView":14,
			"componentType":5123,
			"count":2961,
			"type":"SCALAR"
		},
		{
			"bufferView":15,
			"componentType":5126,
			"count":332,
			"max":[
				0.0375516414642334,
				-0.05259980261325836,
				0.037381235510110855
			],
			"min":[
				-0.03743238002061844,
				-0.053399935364723206,
				-0.03735378012061119
			],
			"type":"VEC3"
		},
		{
			"bufferView":16,
			"componentType":5126,
			"count":332,
			"type":"VEC3"
		},
		{
			"bufferView":17,
			"componentType":5123,
			"count":624,
			"type":"SCALAR"
		},
		{
			"bufferView":18,
			"componentType":5126,
			"count":64,
			"max":[
				0.03696316480636597,
				-0.045849841088056564,
				0.03712058067321777
			],
			"min":[
				-0.036843910813331604,
				-0.052599940448999405,
				-0.03709312155842781
			],
			"type":"VEC3"
		},
		{
			"bufferView":19,
			"componentType":5126,
			"count":64,
			"type":"VEC3"
		},
		{
			"bufferView":20,
			"componentType":5123,
			"count":180,
			"type":"SCALAR"
		}
	],
	"bufferViews":[
		{
			"buffer":0,
			"byteLength":76404,
			"byteOffset":0,
			"target":34962
		},
		{
			"buffer":0,
			"byteLength":76404,
			"byteOffset":76404,
			"target":34962
		},
		{
			"buffer":0,
			"byteLength":44772,
			"byteOffset":152808,
			"target":34963
		},
		{
			"buffer":0,
			"byteLength":41256,
			"byteOffset":197580,
			"target":34962
		},
		{
			"buffer":0,
			"byteLength":41256,
			"byteOffset":238836,
			"target":34962
		},
		{
			"buffer":0,
			"byteLength":19728,
			"byteOffset":280092,
			"target":34963
		},
		{
			"buffer":0,
			"byteLength":25344,
			"byteOffset":299820,
			"target":34962
		},
		{
			"buffer":0,
			"byteLength":25344,
			"byteOffset":325164,
			"target":34962
		},
		{
			"buffer":0,
			"byteLength":16152,
			"byteOffset":350508,
			"target":34963
		},
		{
			"buffer":0,
			"byteLength":1908,
			"byteOffset":366660,
			"target":34962
		},
		{
			"buffer":0,
			"byteLength":1908,
			"byteOffset":368568,
			"target":34962
		},
		{
			"buffer":0,
			"byteLength":720,
			"byteOffset":370476,
			"target":34963
		},
		{
			"buffer":0,
			"byteLength":10884,
			"byteOffset":371196,
			"target":34962
		},
		{
			"buffer":0,
			"byteLength":10884,
			"byteOffset":382080,
			"target":34962
		},
		{
			"buffer":0,
			"byteLength":5922,
			"byteOffset":392964,
			"target":34963
		},
		{
			"buffer":0,
			"byteLength":3984,
			"byteOffset":398888,
			"target":34962
		},
		{
			"buffer":0,
			"byteLength":3984,
			"byteOffset":402872,
			"target":34962
		},
		{
			"buffer":0,
			"byteLength":1248,
			"byteOffset":406856,
			"target":34963
		},
		{
			"buffer":0,
			"byteLength":768,
			"byteOffset":408104,
			"target":34962
		},
		{
			"buffer":0,
			"byteLength":768,
			"byteOffset":408872,
			"target":34962
		},
		{
			"buffer":0,
			"byteLength":360,
			"byteOffset":409640,
			"target":34963
		}
	],
	"buffers":[
		{
			"byteLength":410000,
			"uri":"UR5e_j5.bin"
		}
	]
}
