{
	"asset":{
		"generator":"Khronos glTF Blender I/O v4.1.63",
		"version":"2.0"
	},
	"scene":0,
	"scenes":[
		{
			"name":"Scene",
			"nodes":[
				0
			]
		}
	],
	"nodes":[
		{
			"mesh":0,
			"name":"Link3_UR5_STEP"
		}
	],
	"materials":[
		{
			"doubleSided":true,
			"name":"mat_0.004",
			"pbrMetallicRoughness":{
				"baseColorFactor":[
					0.12213877588510513,
					0.12213877588510513,
					0.12213877588510513,
					1
				],
				"metallicFactor":0.5,
				"roughnessFactor":0.5
			}
		},
		{
			"doubleSided":true,
			"name":"mat_1.004",
			"pbrMetallicRoughness":{
				"baseColorFactor":[
					0.19806931912899017,
					0.5906188488006592,
					1,
					1
				],
				"metallicFactor":0.5,
				"roughnessFactor":0.5
			}
		},
		{
			"doubleSided":true,
			"name":"mat_2.004",
			"pbrMetallicRoughness":{
				"baseColorFactor":[
					0.01032982300966978,
					0.01032982300966978,
					0.01032982300966978,
					1
				],
				"metallicFactor":0.5,
				"roughnessFactor":0.5
			}
		},
		{
			"doubleSided":true,
			"name":"mat_3.004",
			"pbrMetallicRoughness":{
				"baseColorFactor":[
					0.5271151661872864,
					0.5271151661872864,
					0.5271151661872864,
					1
				],
				"metallicFactor":0.5,
				"roughnessFactor":0.5
			}
		},
		{
			"doubleSided":true,
			"name":"mat_4.004",
			"pbrMetallicRoughness":{
				"baseColorFactor":[
					0.44520121812820435,
					0.44520121812820435,
					0.44520121812820435,
					1
				],
				"metallicFactor":0.5,
				"roughnessFactor":0.5
			}
		},
		{
			"doubleSided":true,
			"name":"mat_5.004",
			"pbrMetallicRoughness":{
				"baseColorFactor":[
					0.7835378050804138,
					0.7835378050804138,
					0.7835378050804138,
					1
				],
				"metallicFactor":0.5,
				"roughnessFactor":0.5
			}
		},
		{
			"doubleSided":true,
			"name":"mat_6.004",
			"pbrMetallicRoughness":{
				"baseColorFactor":[
					0.5906188488006592,
					0.6375969052314758,
					0.8549926280975342,
					1
				],
				"metallicFactor":0.5,
				"roughnessFactor":0.5
			}
		}
	],
	"meshes":[
		{
			"name":"Link3_UR5_STEP.001",
			"primitives":[
				{
					"attributes":{
						"POSITION":0,
						"NORMAL":1
					},
					"indices":2,
					"material":0
				},
				{
					"attributes":{
						"POSITION":3,
						"NORMAL":4
					},
					"indices":5,
					"material":1
				},
				{
					"attributes":{
						"POSITION":6,
						"NORMAL":7
					},
					"indices":8,
					"material":2
				},
				{
					"attributes":{
						"POSITION":9,
						"NORMAL":10
					},
					"indices":11,
					"material":3
				},
				{
					"attributes":{
						"POSITION":12,
						"NORMAL":13
					},
					"indices":14,
					"material":4
				},
				{
					"attributes":{
						"POSITION":15,
						"NORMAL":16
					},
					"indices":17,
					"material":5
				},
				{
					"attributes":{
						"POSITION":18,
						"NORMAL":19
					},
					"indices":20,
					"material":6
				}
			]
		}
	],
	"accessors":[
		{
			"bufferView":0,
			"componentType":5126,
			"count":3770,
			"max":[
				0.07300002872943878,
				0.3463999927043915,
				0.0578937903046608
			],
			"min":[
				-0.04200000315904617,
				-0.05796686187386513,
				-0.05789370834827423
			],
			"type":"VEC3"
		},
		{
			"bufferView":1,
			"componentType":5126,
			"count":3770,
			"type":"VEC3"
		},
		{
			"bufferView":2,
			"componentType":5123,
			"count":15327,
			"type":"SCALAR"
		},
		{
			"bufferView":3,
			"componentType":5126,
			"count":5870,
			"max":[
				-0.0008313790312968194,
				0.43156468868255615,
				0.0393499992787838
			],
			"min":[
				-0.050048016011714935,
				0.35291728377342224,
				-0.039350006729364395
			],
			"type":"VEC3"
		},
		{
			"bufferView":4,
			"componentType":5126,
			"count":5870,
			"type":"VEC3"
		},
		{
			"bufferView":5,
			"componentType":5123,
			"count":19929,
			"type":"SCALAR"
		},
		{
			"bufferView":6,
			"componentType":5126,
			"count":554,
			"max":[
				0.07380002737045288,
				0.057999979704618454,
				0.05792738124728203
			],
			"min":[
				0.07300002872943878,
				-0.05800003185868263,
				-0.05792729929089546
			],
			"type":"VEC3"
		},
		{
			"bufferView":7,
			"componentType":5126,
			"count":554,
			"type":"VEC3"
		},
		{
			"bufferView":8,
			"componentType":5123,
			"count":1056,
			"type":"SCALAR"
		},
		{
			"bufferView":9,
			"componentType":5126,
			"count":1852,
			"max":[
				0.05960003286600113,
				0.4297488331794739,
				0.0580001100897789
			],
			"min":[
				-0.04200000315904617,
				-0.05800003185868263,
				-0.058000028133392334
			],
			"type":"VEC3"
		},
		{
			"bufferView":10,
			"componentType":5126,
			"count":1852,
			"type":"VEC3"
		},
		{
			"bufferView":11,
			"componentType":5123,
			"count":5118,
			"type":"SCALAR"
		},
		{
			"bufferView":12,
			"componentType":5126,
			"count":965,
			"max":[
				0.054000020027160645,
				0.33959999680519104,
				0.048000045120716095
			],
			"min":[
				-0.04200000315904617,
				0.0769999623298645,
				-0.047999970614910126
			],
			"type":"VEC3"
		},
		{
			"bufferView":13,
			"componentType":5126,
			"count":965,
			"type":"VEC3"
		},
		{
			"bufferView":14,
			"componentType":5123,
			"count":2742,
			"type":"SCALAR"
		},
		{
			"bufferView":15,
			"componentType":5126,
			"count":2258,
			"max":[
				0.07300002872943878,
				0.42954665422439575,
				0.05693124979734421
			],
			"min":[
				-0.04519801586866379,
				-0.057000044733285904,
				-0.05695546418428421
			],
			"type":"VEC3"
		},
		{
			"bufferView":16,
			"componentType":5126,
			"count":2258,
			"type":"VEC3"
		},
		{
			"bufferView":17,
			"componentType":5123,
			"count":7968,
			"type":"SCALAR"
		},
		{
			"bufferView":18,
			"componentType":5126,
			"count":67,
			"max":[
				0.051700007170438766,
				0.42947661876678467,
				0.03749999403953552
			],
			"min":[
				0.05170000344514847,
				0.35502341389656067,
				-0.03750001639127731
			],
			"type":"VEC3"
		},
		{
			"bufferView":19,
			"componentType":5126,
			"count":67,
			"type":"VEC3"
		},
		{
			"bufferView":20,
			"componentType":5123,
			"count":156,
			"type":"SCALAR"
		}
	],
	"bufferViews":[
		{
			"buffer":0,
			"byteLength":45240,
			"byteOffset":0,
			"target":34962
		},
		{
			"buffer":0,
			"byteLength":45240,
			"byteOffset":45240,
			"target":34962
		},
		{
			"buffer":0,
			"byteLength":30654,
			"byteOffset":90480,
			"target":34963
		},
		{
			"buffer":0,
			"byteLength":70440,
			"byteOffset":121136,
			"target":34962
		},
		{
			"buffer":0,
			"byteLength":70440,
			"byteOffset":191576,
			"target":34962
		},
		{
			"buffer":0,
			"byteLength":39858,
			"byteOffset":262016,
			"target":34963
		},
		{
			"buffer":0,
			"byteLength":6648,
			"byteOffset":301876,
			"target":34962
		},
		{
			"buffer":0,
			"byteLength":6648,
			"byteOffset":308524,
			"target":34962
		},
		{
			"buffer":0,
			"byteLength":2112,
			"byteOffset":315172,
			"target":34963
		},
		{
			"buffer":0,
			"byteLength":22224,
			"byteOffset":317284,
			"target":34962
		},
		{
			"buffer":0,
			"byteLength":22224,
			"byteOffset":339508,
			"target":34962
		},
		{
			"buffer":0,
			"byteLength":10236,
			"byteOffset":361732,
			"target":34963
		},
		{
			"buffer":0,
			"byteLength":11580,
			"byteOffset":371968,
			"target":34962
		},
		{
			"buffer":0,
			"byteLength":11580,
			"byteOffset":383548,
			"target":34962
		},
		{
			"buffer":0,
			"byteLength":5484,
			"byteOffset":395128,
			"target":34963
		},
		{
			"buffer":0,
			"byteLength":27096,
			"byteOffset":400612,
			"target":34962
		},
		{
			"buffer":0,
			"byteLength":27096,
			"byteOffset":427708,
			"target":34962
		},
		{
			"buffer":0,
			"byteLength":15936,
			"byteOffset":454804,
			"target":34963
		},
		{
			"buffer":0,
			"byteLength":804,
			"byteOffset":470740,
			"target":34962
		},
		{
			"buffer":0,
			"byteLength":804,
			"byteOffset":471544,
			"target":34962
		},
		{
			"buffer":0,
			"byteLength":312,
			"byteOffset":472348,
			"target":34963
		}
	],
	"buffers":[
		{
			"byteLength":472660,
			"uri":"UR5e_j3.bin"
		}
	]
}
