{
	"asset":{
		"generator":"Khronos glTF Blender I/O v4.1.63",
		"version":"2.0"
	},
	"scene":0,
	"scenes":[
		{
			"name":"Scene",
			"nodes":[
				0
			]
		}
	],
	"nodes":[
		{
			"mesh":0,
			"name":"Link2_UR5_STEP"
		}
	],
	"materials":[
		{
			"doubleSided":true,
			"name":"mat_0.002",
			"pbrMetallicRoughness":{
				"baseColorFactor":[
					0.19806931912899017,
					0.5906188488006592,
					1,
					1
				],
				"metallicFactor":0.5,
				"roughnessFactor":0.5
			}
		},
		{
			"doubleSided":true,
			"name":"mat_1.002",
			"pbrMetallicRoughness":{
				"baseColorFactor":[
					0.5271151661872864,
					0.5271151661872864,
					0.5271151661872864,
					1
				],
				"metallicFactor":0.5,
				"roughnessFactor":0.5
			}
		},
		{
			"doubleSided":true,
			"name":"mat_2.002",
			"pbrMetallicRoughness":{
				"baseColorFactor":[
					0.12213877588510513,
					0.12213877588510513,
					0.12213877588510513,
					1
				],
				"metallicFactor":0.5,
				"roughnessFactor":0.5
			}
		},
		{
			"doubleSided":true,
			"name":"mat_3.002",
			"pbrMetallicRoughness":{
				"baseColorFactor":[
					0.3813260495662689,
					0.3419143855571747,
					0.3049873411655426,
					1
				],
				"metallicFactor":0.5,
				"roughnessFactor":0.5
			}
		},
		{
			"doubleSided":true,
			"name":"mat_4.002",
			"pbrMetallicRoughness":{
				"baseColorFactor":[
					0.44520121812820435,
					0.44520121812820435,
					0.44520121812820435,
					1
				],
				"metallicFactor":0.5,
				"roughnessFactor":0.5
			}
		},
		{
			"doubleSided":true,
			"name":"mat_5.002",
			"pbrMetallicRoughness":{
				"baseColorFactor":[
					0.5906188488006592,
					0.6375969052314758,
					0.8549926280975342,
					1
				],
				"metallicFactor":0.5,
				"roughnessFactor":0.5
			}
		},
		{
			"doubleSided":true,
			"name":"mat_6.002",
			"pbrMetallicRoughness":{
				"baseColorFactor":[
					1,
					1,
					0,
					1
				],
				"metallicFactor":0.5,
				"roughnessFactor":0.5
			}
		}
	],
	"meshes":[
		{
			"name":"Link2_UR5_STEP",
			"primitives":[
				{
					"attributes":{
						"POSITION":0,
						"NORMAL":1
					},
					"indices":2,
					"material":0
				},
				{
					"attributes":{
						"POSITION":3,
						"NORMAL":4
					},
					"indices":5,
					"material":1
				},
				{
					"attributes":{
						"POSITION":6,
						"NORMAL":7
					},
					"indices":8,
					"material":2
				},
				{
					"attributes":{
						"POSITION":9,
						"NORMAL":10
					},
					"indices":11,
					"material":3
				},
				{
					"attributes":{
						"POSITION":12,
						"NORMAL":13
					},
					"indices":14,
					"material":4
				},
				{
					"attributes":{
						"POSITION":15,
						"NORMAL":16
					},
					"indices":17,
					"material":5
				},
				{
					"attributes":{
						"POSITION":18,
						"NORMAL":19
					},
					"indices":20,
					"material":6
				}
			]
		}
	],
	"accessors":[
		{
			"bufferView":0,
			"componentType":5126,
			"count":18277,
			"max":[
				0.20984186232089996,
				0.4850999116897583,
				0.06007415056228638
			],
			"min":[
				0.14657200872898102,
				-0.06010005623102188,
				-0.06007416546344757
			],
			"type":"VEC3"
		},
		{
			"bufferView":1,
			"componentType":5126,
			"count":18277,
			"type":"VEC3"
		},
		{
			"bufferView":2,
			"componentType":5123,
			"count":52497,
			"type":"SCALAR"
		},
		{
			"bufferView":3,
			"componentType":5126,
			"count":2831,
			"max":[
				0.19883570075035095,
				0.48299992084503174,
				0.05800008401274681
			],
			"min":[
				0.07440003007650375,
				-0.058000050485134125,
				-0.058000098913908005
			],
			"type":"VEC3"
		},
		{
			"bufferView":4,
			"componentType":5126,
			"count":2831,
			"type":"VEC3"
		},
		{
			"bufferView":5,
			"componentType":5123,
			"count":7854,
			"type":"SCALAR"
		},
		{
			"bufferView":6,
			"componentType":5126,
			"count":2422,
			"max":[
				0.19579076766967773,
				0.3647999167442322,
				0.05793280899524689
			],
			"min":[
				0.07980935275554657,
				0.06019992008805275,
				-0.05793282389640808
			],
			"type":"VEC3"
		},
		{
			"bufferView":7,
			"componentType":5126,
			"count":2422,
			"type":"VEC3"
		},
		{
			"bufferView":8,
			"componentType":5123,
			"count":9900,
			"type":"SCALAR"
		},
		{
			"bufferView":9,
			"componentType":5126,
			"count":4348,
			"max":[
				0.20057034492492676,
				0.4638623595237732,
				0.0388624370098114
			],
			"min":[
				0.17433306574821472,
				-0.03886250779032707,
				-0.057850006967782974
			],
			"type":"VEC3"
		},
		{
			"bufferView":10,
			"componentType":5126,
			"count":4348,
			"type":"VEC3"
		},
		{
			"bufferView":11,
			"componentType":5123,
			"count":13599,
			"type":"SCALAR"
		},
		{
			"bufferView":12,
			"componentType":5126,
			"count":1474,
			"max":[
				0.19580014050006866,
				0.35139989852905273,
				0.05799999088048935
			],
			"min":[
				0.0798000693321228,
				0.0735999271273613,
				-0.05800000578165054
			],
			"type":"VEC3"
		},
		{
			"bufferView":13,
			"componentType":5126,
			"count":1474,
			"type":"VEC3"
		},
		{
			"bufferView":14,
			"componentType":5123,
			"count":4176,
			"type":"SCALAR"
		},
		{
			"bufferView":15,
			"componentType":5126,
			"count":418,
			"max":[
				0.196222186088562,
				0.481733500957489,
				0.05572858452796936
			],
			"min":[
				0.09809171408414841,
				-0.0567336305975914,
				-0.055728599429130554
			],
			"type":"VEC3"
		},
		{
			"bufferView":16,
			"componentType":5126,
			"count":418,
			"type":"VEC3"
		},
		{
			"bufferView":17,
			"componentType":5123,
			"count":876,
			"type":"SCALAR"
		},
		{
			"bufferView":18,
			"componentType":5126,
			"count":181,
			"max":[
				0.19883570075035095,
				0.48299992084503174,
				0.05788663774728775
			],
			"min":[
				0.14871065318584442,
				-0.058000050485134125,
				-0.057886652648448944
			],
			"type":"VEC3"
		},
		{
			"bufferView":19,
			"componentType":5126,
			"count":181,
			"type":"VEC3"
		},
		{
			"bufferView":20,
			"componentType":5123,
			"count":372,
			"type":"SCALAR"
		}
	],
	"bufferViews":[
		{
			"buffer":0,
			"byteLength":219324,
			"byteOffset":0,
			"target":34962
		},
		{
			"buffer":0,
			"byteLength":219324,
			"byteOffset":219324,
			"target":34962
		},
		{
			"buffer":0,
			"byteLength":104994,
			"byteOffset":438648,
			"target":34963
		},
		{
			"buffer":0,
			"byteLength":33972,
			"byteOffset":543644,
			"target":34962
		},
		{
			"buffer":0,
			"byteLength":33972,
			"byteOffset":577616,
			"target":34962
		},
		{
			"buffer":0,
			"byteLength":15708,
			"byteOffset":611588,
			"target":34963
		},
		{
			"buffer":0,
			"byteLength":29064,
			"byteOffset":627296,
			"target":34962
		},
		{
			"buffer":0,
			"byteLength":29064,
			"byteOffset":656360,
			"target":34962
		},
		{
			"buffer":0,
			"byteLength":19800,
			"byteOffset":685424,
			"target":34963
		},
		{
			"buffer":0,
			"byteLength":52176,
			"byteOffset":705224,
			"target":34962
		},
		{
			"buffer":0,
			"byteLength":52176,
			"byteOffset":757400,
			"target":34962
		},
		{
			"buffer":0,
			"byteLength":27198,
			"byteOffset":809576,
			"target":34963
		},
		{
			"buffer":0,
			"byteLength":17688,
			"byteOffset":836776,
			"target":34962
		},
		{
			"buffer":0,
			"byteLength":17688,
			"byteOffset":854464,
			"target":34962
		},
		{
			"buffer":0,
			"byteLength":8352,
			"byteOffset":872152,
			"target":34963
		},
		{
			"buffer":0,
			"byteLength":5016,
			"byteOffset":880504,
			"target":34962
		},
		{
			"buffer":0,
			"byteLength":5016,
			"byteOffset":885520,
			"target":34962
		},
		{
			"buffer":0,
			"byteLength":1752,
			"byteOffset":890536,
			"target":34963
		},
		{
			"buffer":0,
			"byteLength":2172,
			"byteOffset":892288,
			"target":34962
		},
		{
			"buffer":0,
			"byteLength":2172,
			"byteOffset":894460,
			"target":34962
		},
		{
			"buffer":0,
			"byteLength":744,
			"byteOffset":896632,
			"target":34963
		}
	],
	"buffers":[
		{
			"byteLength":897376,
			"uri":"UR5e_j2.bin"
		}
	]
}
