{
	"asset":{
		"generator":"Khronos glTF Blender I/O v4.1.63",
		"version":"2.0"
	},
	"scene":0,
	"scenes":[
		{
			"name":"Scene",
			"nodes":[
				0
			]
		}
	],
	"nodes":[
		{
			"mesh":0,
			"name":"Base_UR5_STEP015"
		}
	],
	"materials":[
		{
			"doubleSided":true,
			"name":"mat_0",
			"pbrMetallicRoughness":{
				"baseColorFactor":[
					0.12213877588510513,
					0.12213877588510513,
					0.12213877588510513,
					1
				],
				"metallicFactor":0.5,
				"roughnessFactor":0.5
			}
		},
		{
			"doubleSided":true,
			"name":"mat_1",
			"pbrMetallicRoughness":{
				"baseColorFactor":[
					0.05126945301890373,
					0.05126945301890373,
					0.05126945301890373,
					1
				],
				"metallicFactor":0.5,
				"roughnessFactor":0.5
			}
		},
		{
			"doubleSided":true,
			"name":"mat_2",
			"pbrMetallicRoughness":{
				"baseColorFactor":[
					0.5271151661872864,
					0.5271151661872864,
					0.5271151661872864,
					1
				],
				"metallicFactor":0.5,
				"roughnessFactor":0.5
			}
		},
		{
			"doubleSided":true,
			"name":"mat_3",
			"pbrMetallicRoughness":{
				"baseColorFactor":[
					0.01032982300966978,
					0.01032982300966978,
					0.01032982300966978,
					1
				],
				"metallicFactor":0.5,
				"roughnessFactor":0.5
			}
		},
		{
			"doubleSided":true,
			"name":"mat_4",
			"pbrMetallicRoughness":{
				"baseColorFactor":[
					0.35640010237693787,
					0.3049873411655426,
					0.22322797775268555,
					1
				],
				"metallicFactor":0.5,
				"roughnessFactor":0.5
			}
		},
		{
			"doubleSided":true,
			"name":"mat_5",
			"pbrMetallicRoughness":{
				"baseColorFactor":[
					0.44520121812820435,
					0.44520121812820435,
					0.44520121812820435,
					1
				],
				"metallicFactor":0.5,
				"roughnessFactor":0.5
			}
		},
		{
			"doubleSided":true,
			"name":"mat_6",
			"pbrMetallicRoughness":{
				"baseColorFactor":[
					0.7835378050804138,
					0.8307698965072632,
					0.8468732237815857,
					1
				],
				"metallicFactor":0.5,
				"roughnessFactor":0.5
			}
		},
		{
			"doubleSided":true,
			"name":"mat_7",
			"pbrMetallicRoughness":{
				"baseColorFactor":[
					0.5906188488006592,
					0.6375969052314758,
					0.8549926280975342,
					1
				],
				"metallicFactor":0.5,
				"roughnessFactor":0.5
			}
		},
		{
			"doubleSided":true,
			"name":"mat_8",
			"pbrMetallicRoughness":{
				"baseColorFactor":[
					0,
					0.3662526309490204,
					0,
					1
				],
				"metallicFactor":0.5,
				"roughnessFactor":0.5
			}
		},
		{
			"doubleSided":true,
			"name":"mat_9",
			"pbrMetallicRoughness":{
				"baseColorFactor":[
					1,
					0,
					0,
					1
				],
				"metallicFactor":0.5,
				"roughnessFactor":0.5
			}
		},
		{
			"doubleSided":true,
			"name":"mat_10",
			"pbrMetallicRoughness":{
				"baseColorFactor":[
					0.8879231214523315,
					0.5394794940948486,
					0.027320893481373787,
					1
				],
				"metallicFactor":0.5,
				"roughnessFactor":0.5
			}
		}
	],
	"meshes":[
		{
			"name":"Base_UR5_STEP015",
			"primitives":[
				{
					"attributes":{
						"POSITION":0,
						"NORMAL":1
					},
					"indices":2,
					"material":0
				},
				{
					"attributes":{
						"POSITION":3,
						"NORMAL":4
					},
					"indices":5,
					"material":1
				},
				{
					"attributes":{
						"POSITION":6,
						"NORMAL":7
					},
					"indices":8,
					"material":2
				},
				{
					"attributes":{
						"POSITION":9,
						"NORMAL":10
					},
					"indices":11,
					"material":3
				},
				{
					"attributes":{
						"POSITION":12,
						"NORMAL":13
					},
					"indices":14,
					"material":4
				},
				{
					"attributes":{
						"POSITION":15,
						"NORMAL":16
					},
					"indices":17,
					"material":5
				},
				{
					"attributes":{
						"POSITION":18,
						"NORMAL":19
					},
					"indices":20,
					"material":6
				},
				{
					"attributes":{
						"POSITION":21,
						"NORMAL":22
					},
					"indices":23,
					"material":7
				},
				{
					"attributes":{
						"POSITION":24,
						"NORMAL":25
					},
					"indices":26,
					"material":8
				},
				{
					"attributes":{
						"POSITION":27,
						"NORMAL":28
					},
					"indices":29,
					"material":9
				},
				{
					"attributes":{
						"POSITION":30,
						"NORMAL":31
					},
					"indices":32,
					"material":10
				}
			]
		}
	],
	"accessors":[
		{
			"bufferView":0,
			"componentType":5126,
			"count":1946,
			"max":[
				0.05784459784626961,
				0.0983000099658966,
				0.057971250265836716
			],
			"min":[
				-0.05784459784626961,
				0.08487990498542786,
				-0.05797119438648224
			],
			"type":"VEC3"
		},
		{
			"bufferView":1,
			"componentType":5126,
			"count":1946,
			"type":"VEC3"
		},
		{
			"bufferView":2,
			"componentType":5123,
			"count":8202,
			"type":"SCALAR"
		},
		{
			"bufferView":3,
			"componentType":5126,
			"count":783,
			"max":[
				0.05796006694436073,
				0.0991000086069107,
				0.05799275264143944
			],
			"min":[
				-0.05796006694436073,
				0.04624998942017555,
				-0.05799269303679466
			],
			"type":"VEC3"
		},
		{
			"bufferView":4,
			"componentType":5126,
			"count":783,
			"type":"VEC3"
		},
		{
			"bufferView":5,
			"componentType":5123,
			"count":2544,
			"type":"SCALAR"
		},
		{
			"bufferView":6,
			"componentType":5126,
			"count":2735,
			"max":[
				0.0131222540512681,
				0.053749989718198776,
				0.040750011801719666
			],
			"min":[
				-0.0131222540512681,
				0.049849983304739,
				0.01725001260638237
			],
			"type":"VEC3"
		},
		{
			"bufferView":7,
			"componentType":5126,
			"count":2735,
			"type":"VEC3"
		},
		{
			"bufferView":8,
			"componentType":5123,
			"count":10146,
			"type":"SCALAR"
		},
		{
			"bufferView":9,
			"componentType":5126,
			"count":379,
			"max":[
				0.006049999967217445,
				0.056249987334012985,
				0.032005902379751205
			],
			"min":[
				-0.006049999967217445,
				0.03824998438358307,
				0.01999412104487419
			],
			"type":"VEC3"
		},
		{
			"bufferView":10,
			"componentType":5126,
			"count":379,
			"type":"VEC3"
		},
		{
			"bufferView":11,
			"componentType":5123,
			"count":1077,
			"type":"SCALAR"
		},
		{
			"bufferView":12,
			"componentType":5126,
			"count":1084,
			"max":[
				0.014490068890154362,
				0.056749988347291946,
				0.040500011295080185
			],
			"min":[
				-0.014490068890154362,
				0.040249984711408615,
				0.011500014923512936
			],
			"type":"VEC3"
		},
		{
			"bufferView":13,
			"componentType":5126,
			"count":1084,
			"type":"VEC3"
		},
		{
			"bufferView":14,
			"componentType":5123,
			"count":3546,
			"type":"SCALAR"
		},
		{
			"bufferView":15,
			"componentType":5126,
			"count":10142,
			"max":[
				0.07536270469427109,
				0.08490000665187836,
				0.0754999965429306
			],
			"min":[
				-0.07536270469427109,
				-2.2811853739312937e-08,
				-0.07549931854009628
			],
			"type":"VEC3"
		},
		{
			"bufferView":16,
			"componentType":5126,
			"count":10142,
			"type":"VEC3"
		},
		{
			"bufferView":17,
			"componentType":5123,
			"count":30324,
			"type":"SCALAR"
		},
		{
			"bufferView":18,
			"componentType":5126,
			"count":224,
			"max":[
				0.024840885773301125,
				0.05674999952316284,
				0.014450015500187874
			],
			"min":[
				-0.02074088528752327,
				0.053749993443489075,
				-0.009849983267486095
			],
			"type":"VEC3"
		},
		{
			"bufferView":19,
			"componentType":5126,
			"count":224,
			"type":"VEC3"
		},
		{
			"bufferView":20,
			"componentType":5123,
			"count":624,
			"type":"SCALAR"
		},
		{
			"bufferView":21,
			"componentType":5126,
			"count":539,
			"max":[
				0.05685000121593475,
				0.0983000099658966,
				0.056803055107593536
			],
			"min":[
				-0.05685000121593475,
				0.05674998462200165,
				-0.05680299922823906
			],
			"type":"VEC3"
		},
		{
			"bufferView":22,
			"componentType":5126,
			"count":539,
			"type":"VEC3"
		},
		{
			"bufferView":23,
			"componentType":5123,
			"count":1230,
			"type":"SCALAR"
		},
		{
			"bufferView":24,
			"componentType":5126,
			"count":131,
			"max":[
				0.0017298507736995816,
				0.056749988347291946,
				0.028281910344958305
			],
			"min":[
				-0.004040990490466356,
				0.04624998942017555,
				0.021976886317133904
			],
			"type":"VEC3"
		},
		{
			"bufferView":25,
			"componentType":5126,
			"count":131,
			"type":"VEC3"
		},
		{
			"bufferView":26,
			"componentType":5123,
			"count":528,
			"type":"SCALAR"
		},
		{
			"bufferView":27,
			"componentType":5126,
			"count":233,
			"max":[
				0.003699185326695442,
				0.056749988347291946,
				0.03090689890086651
			],
			"min":[
				-0.0016909128753468394,
				0.04624998942017555,
				0.027301901951432228
			],
			"type":"VEC3"
		},
		{
			"bufferView":28,
			"componentType":5126,
			"count":233,
			"type":"VEC3"
		},
		{
			"bufferView":29,
			"componentType":5123,
			"count":969,
			"type":"SCALAR"
		},
		{
			"bufferView":30,
			"componentType":5126,
			"count":56,
			"max":[
				0.00784240011125803,
				0.05670095235109329,
				0.03390001505613327
			],
			"min":[
				-0.00784240011125803,
				0.055844057351350784,
				0.018100015819072723
			],
			"type":"VEC3"
		},
		{
			"bufferView":31,
			"componentType":5126,
			"count":56,
			"type":"VEC3"
		},
		{
			"bufferView":32,
			"componentType":5123,
			"count":156,
			"type":"SCALAR"
		}
	],
	"bufferViews":[
		{
			"buffer":0,
			"byteLength":23352,
			"byteOffset":0,
			"target":34962
		},
		{
			"buffer":0,
			"byteLength":23352,
			"byteOffset":23352,
			"target":34962
		},
		{
			"buffer":0,
			"byteLength":16404,
			"byteOffset":46704,
			"target":34963
		},
		{
			"buffer":0,
			"byteLength":9396,
			"byteOffset":63108,
			"target":34962
		},
		{
			"buffer":0,
			"byteLength":9396,
			"byteOffset":72504,
			"target":34962
		},
		{
			"buffer":0,
			"byteLength":5088,
			"byteOffset":81900,
			"target":34963
		},
		{
			"buffer":0,
			"byteLength":32820,
			"byteOffset":86988,
			"target":34962
		},
		{
			"buffer":0,
			"byteLength":32820,
			"byteOffset":119808,
			"target":34962
		},
		{
			"buffer":0,
			"byteLength":20292,
			"byteOffset":152628,
			"target":34963
		},
		{
			"buffer":0,
			"byteLength":4548,
			"byteOffset":172920,
			"target":34962
		},
		{
			"buffer":0,
			"byteLength":4548,
			"byteOffset":177468,
			"target":34962
		},
		{
			"buffer":0,
			"byteLength":2154,
			"byteOffset":182016,
			"target":34963
		},
		{
			"buffer":0,
			"byteLength":13008,
			"byteOffset":184172,
			"target":34962
		},
		{
			"buffer":0,
			"byteLength":13008,
			"byteOffset":197180,
			"target":34962
		},
		{
			"buffer":0,
			"byteLength":7092,
			"byteOffset":210188,
			"target":34963
		},
		{
			"buffer":0,
			"byteLength":121704,
			"byteOffset":217280,
			"target":34962
		},
		{
			"buffer":0,
			"byteLength":121704,
			"byteOffset":338984,
			"target":34962
		},
		{
			"buffer":0,
			"byteLength":60648,
			"byteOffset":460688,
			"target":34963
		},
		{
			"buffer":0,
			"byteLength":2688,
			"byteOffset":521336,
			"target":34962
		},
		{
			"buffer":0,
			"byteLength":2688,
			"byteOffset":524024,
			"target":34962
		},
		{
			"buffer":0,
			"byteLength":1248,
			"byteOffset":526712,
			"target":34963
		},
		{
			"buffer":0,
			"byteLength":6468,
			"byteOffset":527960,
			"target":34962
		},
		{
			"buffer":0,
			"byteLength":6468,
			"byteOffset":534428,
			"target":34962
		},
		{
			"buffer":0,
			"byteLength":2460,
			"byteOffset":540896,
			"target":34963
		},
		{
			"buffer":0,
			"byteLength":1572,
			"byteOffset":543356,
			"target":34962
		},
		{
			"buffer":0,
			"byteLength":1572,
			"byteOffset":544928,
			"target":34962
		},
		{
			"buffer":0,
			"byteLength":1056,
			"byteOffset":546500,
			"target":34963
		},
		{
			"buffer":0,
			"byteLength":2796,
			"byteOffset":547556,
			"target":34962
		},
		{
			"buffer":0,
			"byteLength":2796,
			"byteOffset":550352,
			"target":34962
		},
		{
			"buffer":0,
			"byteLength":1938,
			"byteOffset":553148,
			"target":34963
		},
		{
			"buffer":0,
			"byteLength":672,
			"byteOffset":555088,
			"target":34962
		},
		{
			"buffer":0,
			"byteLength":672,
			"byteOffset":555760,
			"target":34962
		},
		{
			"buffer":0,
			"byteLength":312,
			"byteOffset":556432,
			"target":34963
		}
	],
	"buffers":[
		{
			"byteLength":556744,
			"uri":"UR5e_Base.bin"
		}
	]
}
