{
	"asset":{
		"generator":"Khronos glTF Blender I/O v4.1.63",
		"version":"2.0"
	},
	"scene":0,
	"scenes":[
		{
			"name":"Scene",
			"nodes":[
				0
			]
		}
	],
	"nodes":[
		{
			"mesh":0,
			"name":"Link4_UR5_STEP^1000515"
		}
	],
	"materials":[
		{
			"doubleSided":true,
			"name":"mat_0.009",
			"pbrMetallicRoughness":{
				"baseColorFactor":[
					0.19806931912899017,
					0.5906188488006592,
					1,
					1
				],
				"metallicFactor":0.5,
				"roughnessFactor":0.5
			}
		},
		{
			"doubleSided":true,
			"name":"mat_1.009",
			"pbrMetallicRoughness":{
				"baseColorFactor":[
					1,
					1,
					0.2158605307340622,
					1
				],
				"metallicFactor":0.5,
				"roughnessFactor":0.5
			}
		},
		{
			"doubleSided":true,
			"name":"mat_2.009",
			"pbrMetallicRoughness":{
				"baseColorFactor":[
					0.12213877588510513,
					0.12213877588510513,
					0.12213877588510513,
					1
				],
				"metallicFactor":0.5,
				"roughnessFactor":0.5
			}
		},
		{
			"doubleSided":true,
			"name":"mat_3.008",
			"pbrMetallicRoughness":{
				"baseColorFactor":[
					0.05126945301890373,
					0.05126945301890373,
					0.05126945301890373,
					1
				],
				"metallicFactor":0.5,
				"roughnessFactor":0.5
			}
		},
		{
			"doubleSided":true,
			"name":"mat_4.008",
			"pbrMetallicRoughness":{
				"baseColorFactor":[
					0.7835378050804138,
					0.7835378050804138,
					0.7835378050804138,
					1
				],
				"metallicFactor":0.5,
				"roughnessFactor":0.5
			}
		},
		{
			"doubleSided":true,
			"name":"mat_5.008",
			"pbrMetallicRoughness":{
				"baseColorFactor":[
					0.5271151661872864,
					0.5271151661872864,
					0.5271151661872864,
					1
				],
				"metallicFactor":0.5,
				"roughnessFactor":0.5
			}
		},
		{
			"doubleSided":true,
			"name":"mat_6.008",
			"pbrMetallicRoughness":{
				"baseColorFactor":[
					0.5906188488006592,
					0.6375969052314758,
					0.8549926280975342,
					1
				],
				"metallicFactor":0.5,
				"roughnessFactor":0.5
			}
		}
	],
	"meshes":[
		{
			"name":"Link4_UR5_STEP^1000515.001",
			"primitives":[
				{
					"attributes":{
						"POSITION":0,
						"NORMAL":1
					},
					"indices":2,
					"material":0
				},
				{
					"attributes":{
						"POSITION":3,
						"NORMAL":4
					},
					"indices":5,
					"material":1
				},
				{
					"attributes":{
						"POSITION":6,
						"NORMAL":7
					},
					"indices":8,
					"material":2
				},
				{
					"attributes":{
						"POSITION":9,
						"NORMAL":10
					},
					"indices":11,
					"material":3
				},
				{
					"attributes":{
						"POSITION":12,
						"NORMAL":13
					},
					"indices":14,
					"material":4
				},
				{
					"attributes":{
						"POSITION":15,
						"NORMAL":16
					},
					"indices":17,
					"material":5
				},
				{
					"attributes":{
						"POSITION":18,
						"NORMAL":19
					},
					"indices":20,
					"material":6
				}
			]
		}
	],
	"accessors":[
		{
			"bufferView":0,
			"componentType":5126,
			"count":7412,
			"max":[
				0.17184434831142426,
				-0.0068133375607430935,
				0.03934990614652634
			],
			"min":[
				0.09331996738910675,
				-0.05602998659014702,
				-0.039350107312202454
			],
			"type":"VEC3"
		},
		{
			"bufferView":1,
			"componentType":5126,
			"count":7412,
			"type":"VEC3"
		},
		{
			"bufferView":2,
			"componentType":5123,
			"count":23502,
			"type":"SCALAR"
		},
		{
			"bufferView":3,
			"componentType":5126,
			"count":4841,
			"max":[
				0.17039844393730164,
				-0.0074797929264605045,
				0.03789333626627922
			],
			"min":[
				0.0946115180850029,
				-0.04917998984456062,
				-0.037893541157245636
			],
			"type":"VEC3"
		},
		{
			"bufferView":4,
			"componentType":5126,
			"count":4841,
			"type":"VEC3"
		},
		{
			"bufferView":5,
			"componentType":5123,
			"count":13686,
			"type":"SCALAR"
		},
		{
			"bufferView":6,
			"componentType":5126,
			"count":933,
			"max":[
				0.10895941406488419,
				0.037422068417072296,
				0.037421926856040955
			],
			"min":[
				0.0529000461101532,
				-0.03742193430662155,
				-0.03742208331823349
			],
			"type":"VEC3"
		},
		{
			"bufferView":7,
			"componentType":5126,
			"count":933,
			"type":"VEC3"
		},
		{
			"bufferView":8,
			"componentType":5123,
			"count":4263,
			"type":"SCALAR"
		},
		{
			"bufferView":9,
			"componentType":5126,
			"count":207,
			"max":[
				0.05290006101131439,
				0.03749902546405792,
				0.0374988429248333
			],
			"min":[
				0.0521000474691391,
				-0.03749886900186539,
				-0.037499040365219116
			],
			"type":"VEC3"
		},
		{
			"bufferView":10,
			"componentType":5126,
			"count":207,
			"type":"VEC3"
		},
		{
			"bufferView":11,
			"componentType":5123,
			"count":582,
			"type":"SCALAR"
		},
		{
			"bufferView":12,
			"componentType":5126,
			"count":2583,
			"max":[
				0.16963407397270203,
				0.04630007594823837,
				0.037133943289518356
			],
			"min":[
				0.09536604583263397,
				-0.05117999389767647,
				-0.03713412955403328
			],
			"type":"VEC3"
		},
		{
			"bufferView":13,
			"componentType":5126,
			"count":2583,
			"type":"VEC3"
		},
		{
			"bufferView":14,
			"componentType":5123,
			"count":8433,
			"type":"SCALAR"
		},
		{
			"bufferView":15,
			"componentType":5126,
			"count":1531,
			"max":[
				0.17000006139278412,
				0.0457000695168972,
				0.03749992325901985
			],
			"min":[
				0.05965004861354828,
				-0.03848941996693611,
				-0.03750012069940567
			],
			"type":"VEC3"
		},
		{
			"bufferView":16,
			"componentType":5126,
			"count":1531,
			"type":"VEC3"
		},
		{
			"bufferView":17,
			"componentType":5123,
			"count":4581,
			"type":"SCALAR"
		},
		{
			"bufferView":18,
			"componentType":5126,
			"count":143,
			"max":[
				0.17000006139278412,
				0.0457000806927681,
				0.03749991953372955
			],
			"min":[
				0.09500006586313248,
				0.04570002108812332,
				-0.03750010207295418
			],
			"type":"VEC3"
		},
		{
			"bufferView":19,
			"componentType":5126,
			"count":143,
			"type":"VEC3"
		},
		{
			"bufferView":20,
			"componentType":5123,
			"count":168,
			"type":"SCALAR"
		}
	],
	"bufferViews":[
		{
			"buffer":0,
			"byteLength":88944,
			"byteOffset":0,
			"target":34962
		},
		{
			"buffer":0,
			"byteLength":88944,
			"byteOffset":88944,
			"target":34962
		},
		{
			"buffer":0,
			"byteLength":47004,
			"byteOffset":177888,
			"target":34963
		},
		{
			"buffer":0,
			"byteLength":58092,
			"byteOffset":224892,
			"target":34962
		},
		{
			"buffer":0,
			"byteLength":58092,
			"byteOffset":282984,
			"target":34962
		},
		{
			"buffer":0,
			"byteLength":27372,
			"byteOffset":341076,
			"target":34963
		},
		{
			"buffer":0,
			"byteLength":11196,
			"byteOffset":368448,
			"target":34962
		},
		{
			"buffer":0,
			"byteLength":11196,
			"byteOffset":379644,
			"target":34962
		},
		{
			"buffer":0,
			"byteLength":8526,
			"byteOffset":390840,
			"target":34963
		},
		{
			"buffer":0,
			"byteLength":2484,
			"byteOffset":399368,
			"target":34962
		},
		{
			"buffer":0,
			"byteLength":2484,
			"byteOffset":401852,
			"target":34962
		},
		{
			"buffer":0,
			"byteLength":1164,
			"byteOffset":404336,
			"target":34963
		},
		{
			"buffer":0,
			"byteLength":30996,
			"byteOffset":405500,
			"target":34962
		},
		{
			"buffer":0,
			"byteLength":30996,
			"byteOffset":436496,
			"target":34962
		},
		{
			"buffer":0,
			"byteLength":16866,
			"byteOffset":467492,
			"target":34963
		},
		{
			"buffer":0,
			"byteLength":18372,
			"byteOffset":484360,
			"target":34962
		},
		{
			"buffer":0,
			"byteLength":18372,
			"byteOffset":502732,
			"target":34962
		},
		{
			"buffer":0,
			"byteLength":9162,
			"byteOffset":521104,
			"target":34963
		},
		{
			"buffer":0,
			"byteLength":1716,
			"byteOffset":530268,
			"target":34962
		},
		{
			"buffer":0,
			"byteLength":1716,
			"byteOffset":531984,
			"target":34962
		},
		{
			"buffer":0,
			"byteLength":336,
			"byteOffset":533700,
			"target":34963
		}
	],
	"buffers":[
		{
			"byteLength":534036,
			"uri":"UR5e_j4.bin"
		}
	]
}
